%
M48
M72
T01C0.0080
T02C0.0100
T03C0.0118
T04C0.0120
T05C0.0200
T06C0.0394
T07C0.1378
%
T01
X10556Y15568
X10894Y15580
T02
X16602Y19135
T03
X10380Y16020
X12300Y15860
X12339Y15276
X15292Y10946
X21020Y5380
X20460Y7540
X20060Y7540
X19660Y7540
X19260Y7540
X18860Y7540
X18460Y7540
X21740Y7820
X21040Y8860
X20620Y9580
X15883Y14883
X7740Y15220
X7020Y15140
X7580Y14100
X6780Y11860
T04
X8380Y22180
X8700Y22700
X9300Y23080
X12180Y22460
X12500Y22820
X12960Y21880
X12960Y21480
X13700Y19100
X16540Y17740
X16900Y17740
X18000Y17200
X18180Y17740
X18540Y17740
X20600Y18600
X21000Y18600
X21400Y18600
X22060Y17940
X21460Y17860
X21200Y16700
X21740Y16620
X21700Y20800
X21285Y20785
X20500Y20800
X21600Y22760
X20780Y22660
X20340Y22740
X19945Y22842
X19700Y23140
X18120Y22600
X23500Y20900
X23500Y20500
X24300Y20100
X17700Y14900
X17300Y14900
X16300Y14400
X6500Y10700
X7048Y12143
X7500Y12800
X7500Y13200
X7500Y13600
X7278Y14853
X6500Y16100
X9500Y12700
X9900Y12700
X11000Y10900
X13721Y12398
X14600Y13500
X15000Y13500
X16437Y12088
X14600Y10900
X16200Y10400
X16800Y10400
X17400Y10400
X17400Y9600
X16800Y9600
X16200Y9600
X21500Y6700
X23054Y5637
X24020Y7020
X23100Y7500
X23400Y7800
X23700Y8100
X22940Y9320
X23260Y9600
X21800Y9600
X21000Y9600
X20500Y10300
X20100Y3700
X15800Y5400
X15400Y5400
X15000Y5400
X14600Y5400
X13900Y2700
X7600Y5400
X15400Y15700
T05
X7600Y19700
X8200Y16500
X8200Y16000
X11600Y8700
X12100Y8700
X26060Y19160
X22300Y23000
T06
X8501Y19607
X6139Y19607
X6139Y8583
X8501Y8583
T07
X11000Y22500
X11100Y5700
M30
