G75*
%MOIN*%
%OFA0B0*%
%FSLAX25Y25*%
%IPPOS*%
%LPD*%
%AMOC8*
5,1,8,0,0,1.08239X$1,22.5*
%
%ADD10C,0.01600*%
%ADD11C,0.00000*%
%ADD12C,0.00400*%
%ADD13C,0.00800*%
%ADD14C,0.00100*%
%ADD15C,0.00500*%
%ADD16C,0.01000*%
%ADD17C,0.00200*%
D10*
X0049772Y0066937D02*
X0049772Y0214969D01*
X0051614Y0217418D01*
X0053515Y0219821D01*
X0055474Y0222176D01*
X0057491Y0224483D01*
X0059563Y0226740D01*
X0061690Y0228946D01*
X0063871Y0231099D01*
X0066103Y0233198D01*
X0068386Y0235242D01*
X0070719Y0237229D01*
X0073099Y0239158D01*
X0075526Y0241029D01*
X0077998Y0242840D01*
X0080513Y0244589D01*
X0083071Y0246277D01*
X0085669Y0247901D01*
X0088306Y0249462D01*
X0090981Y0250957D01*
X0093691Y0252387D01*
X0096435Y0253749D01*
X0099212Y0255044D01*
X0102020Y0256271D01*
X0104857Y0257429D01*
X0107722Y0258517D01*
X0110612Y0259534D01*
X0113526Y0260481D01*
X0116463Y0261355D01*
X0119420Y0262158D01*
X0122396Y0262888D01*
X0125389Y0263545D01*
X0128397Y0264129D01*
X0131419Y0264638D01*
X0134452Y0265074D01*
X0137494Y0265435D01*
X0140545Y0265722D01*
X0143602Y0265934D01*
X0146663Y0266071D01*
X0149727Y0266133D01*
X0152791Y0266120D01*
X0155854Y0266032D01*
X0158913Y0265869D01*
X0161968Y0265632D01*
X0165016Y0265319D01*
X0168056Y0264932D01*
X0171085Y0264471D01*
X0174102Y0263936D01*
X0177105Y0263327D01*
X0180093Y0262645D01*
X0183062Y0261890D01*
X0186013Y0261062D01*
X0188942Y0260163D01*
X0191848Y0259192D01*
X0194730Y0258150D01*
X0197585Y0257038D01*
X0200412Y0255857D01*
X0203210Y0254606D01*
X0205976Y0253288D01*
X0208708Y0251902D01*
X0211407Y0250450D01*
X0214068Y0248932D01*
X0216692Y0247349D01*
X0219277Y0245703D01*
X0221820Y0243994D01*
X0224321Y0242223D01*
X0226777Y0240392D01*
X0229188Y0238501D01*
X0231552Y0236551D01*
X0233868Y0234544D01*
X0236133Y0232481D01*
X0238348Y0230364D01*
X0240510Y0228192D01*
X0242619Y0225969D01*
X0244672Y0223695D01*
X0246669Y0221370D01*
X0248608Y0218998D01*
X0250489Y0216579D01*
X0252310Y0214115D01*
X0254071Y0211607D01*
X0255769Y0209056D01*
X0257404Y0206465D01*
X0258976Y0203835D01*
X0260482Y0201167D01*
X0261923Y0198462D01*
X0263297Y0195724D01*
X0264604Y0192952D01*
X0265843Y0190149D01*
X0267012Y0187317D01*
X0268112Y0184457D01*
X0269142Y0181571D01*
X0270101Y0178661D01*
X0270988Y0175728D01*
X0271803Y0172774D01*
X0272546Y0169802D01*
X0273215Y0166811D01*
X0273811Y0163806D01*
X0274334Y0160787D01*
X0274782Y0157755D01*
X0275156Y0154714D01*
X0275456Y0151665D01*
X0275681Y0148609D01*
X0275831Y0145548D01*
X0275906Y0142485D01*
X0275906Y0139421D01*
X0275831Y0136358D01*
X0275681Y0133297D01*
X0275456Y0130241D01*
X0275156Y0127192D01*
X0274782Y0124151D01*
X0274334Y0121119D01*
X0273811Y0118100D01*
X0273215Y0115095D01*
X0272546Y0112104D01*
X0271803Y0109132D01*
X0270988Y0106178D01*
X0270101Y0103245D01*
X0269142Y0100335D01*
X0268112Y0097449D01*
X0267012Y0094589D01*
X0265843Y0091757D01*
X0264604Y0088954D01*
X0263297Y0086182D01*
X0261923Y0083444D01*
X0260482Y0080739D01*
X0258976Y0078071D01*
X0257404Y0075441D01*
X0255769Y0072850D01*
X0254071Y0070299D01*
X0252310Y0067791D01*
X0250489Y0065327D01*
X0248608Y0062908D01*
X0246669Y0060536D01*
X0244672Y0058211D01*
X0242619Y0055937D01*
X0240510Y0053714D01*
X0238348Y0051542D01*
X0236133Y0049425D01*
X0233868Y0047362D01*
X0231552Y0045355D01*
X0229188Y0043405D01*
X0226777Y0041514D01*
X0224321Y0039683D01*
X0221820Y0037912D01*
X0219277Y0036203D01*
X0216692Y0034557D01*
X0214068Y0032974D01*
X0211407Y0031456D01*
X0208708Y0030004D01*
X0205976Y0028618D01*
X0203210Y0027300D01*
X0200412Y0026049D01*
X0197585Y0024868D01*
X0194730Y0023756D01*
X0191848Y0022714D01*
X0188942Y0021743D01*
X0186013Y0020844D01*
X0183062Y0020016D01*
X0180093Y0019261D01*
X0177105Y0018579D01*
X0174102Y0017970D01*
X0171085Y0017435D01*
X0168056Y0016974D01*
X0165016Y0016587D01*
X0161968Y0016274D01*
X0158913Y0016037D01*
X0155854Y0015874D01*
X0152791Y0015786D01*
X0149727Y0015773D01*
X0146663Y0015835D01*
X0143602Y0015972D01*
X0140545Y0016184D01*
X0137494Y0016471D01*
X0134452Y0016832D01*
X0131419Y0017268D01*
X0128397Y0017777D01*
X0125389Y0018361D01*
X0122396Y0019018D01*
X0119420Y0019748D01*
X0116463Y0020551D01*
X0113526Y0021425D01*
X0110612Y0022372D01*
X0107722Y0023389D01*
X0104857Y0024477D01*
X0102020Y0025635D01*
X0099212Y0026862D01*
X0096435Y0028157D01*
X0093691Y0029519D01*
X0090981Y0030949D01*
X0088306Y0032444D01*
X0085669Y0034005D01*
X0083071Y0035629D01*
X0080513Y0037317D01*
X0077998Y0039066D01*
X0075526Y0040877D01*
X0073099Y0042748D01*
X0070719Y0044677D01*
X0068386Y0046664D01*
X0066103Y0048708D01*
X0063871Y0050807D01*
X0061690Y0052960D01*
X0059563Y0055166D01*
X0057491Y0057423D01*
X0055474Y0059730D01*
X0053515Y0062085D01*
X0051614Y0064488D01*
X0049772Y0066937D01*
D11*
X0059417Y0085835D02*
X0059419Y0085923D01*
X0059425Y0086011D01*
X0059435Y0086099D01*
X0059449Y0086187D01*
X0059466Y0086273D01*
X0059488Y0086359D01*
X0059513Y0086443D01*
X0059543Y0086527D01*
X0059575Y0086609D01*
X0059612Y0086689D01*
X0059652Y0086768D01*
X0059696Y0086845D01*
X0059743Y0086920D01*
X0059793Y0086992D01*
X0059847Y0087063D01*
X0059903Y0087130D01*
X0059963Y0087196D01*
X0060025Y0087258D01*
X0060091Y0087318D01*
X0060158Y0087374D01*
X0060229Y0087428D01*
X0060301Y0087478D01*
X0060376Y0087525D01*
X0060453Y0087569D01*
X0060532Y0087609D01*
X0060612Y0087646D01*
X0060694Y0087678D01*
X0060778Y0087708D01*
X0060862Y0087733D01*
X0060948Y0087755D01*
X0061034Y0087772D01*
X0061122Y0087786D01*
X0061210Y0087796D01*
X0061298Y0087802D01*
X0061386Y0087804D01*
X0061474Y0087802D01*
X0061562Y0087796D01*
X0061650Y0087786D01*
X0061738Y0087772D01*
X0061824Y0087755D01*
X0061910Y0087733D01*
X0061994Y0087708D01*
X0062078Y0087678D01*
X0062160Y0087646D01*
X0062240Y0087609D01*
X0062319Y0087569D01*
X0062396Y0087525D01*
X0062471Y0087478D01*
X0062543Y0087428D01*
X0062614Y0087374D01*
X0062681Y0087318D01*
X0062747Y0087258D01*
X0062809Y0087196D01*
X0062869Y0087130D01*
X0062925Y0087063D01*
X0062979Y0086992D01*
X0063029Y0086920D01*
X0063076Y0086845D01*
X0063120Y0086768D01*
X0063160Y0086689D01*
X0063197Y0086609D01*
X0063229Y0086527D01*
X0063259Y0086443D01*
X0063284Y0086359D01*
X0063306Y0086273D01*
X0063323Y0086187D01*
X0063337Y0086099D01*
X0063347Y0086011D01*
X0063353Y0085923D01*
X0063355Y0085835D01*
X0063353Y0085747D01*
X0063347Y0085659D01*
X0063337Y0085571D01*
X0063323Y0085483D01*
X0063306Y0085397D01*
X0063284Y0085311D01*
X0063259Y0085227D01*
X0063229Y0085143D01*
X0063197Y0085061D01*
X0063160Y0084981D01*
X0063120Y0084902D01*
X0063076Y0084825D01*
X0063029Y0084750D01*
X0062979Y0084678D01*
X0062925Y0084607D01*
X0062869Y0084540D01*
X0062809Y0084474D01*
X0062747Y0084412D01*
X0062681Y0084352D01*
X0062614Y0084296D01*
X0062543Y0084242D01*
X0062471Y0084192D01*
X0062396Y0084145D01*
X0062319Y0084101D01*
X0062240Y0084061D01*
X0062160Y0084024D01*
X0062078Y0083992D01*
X0061994Y0083962D01*
X0061910Y0083937D01*
X0061824Y0083915D01*
X0061738Y0083898D01*
X0061650Y0083884D01*
X0061562Y0083874D01*
X0061474Y0083868D01*
X0061386Y0083866D01*
X0061298Y0083868D01*
X0061210Y0083874D01*
X0061122Y0083884D01*
X0061034Y0083898D01*
X0060948Y0083915D01*
X0060862Y0083937D01*
X0060778Y0083962D01*
X0060694Y0083992D01*
X0060612Y0084024D01*
X0060532Y0084061D01*
X0060453Y0084101D01*
X0060376Y0084145D01*
X0060301Y0084192D01*
X0060229Y0084242D01*
X0060158Y0084296D01*
X0060091Y0084352D01*
X0060025Y0084412D01*
X0059963Y0084474D01*
X0059903Y0084540D01*
X0059847Y0084607D01*
X0059793Y0084678D01*
X0059743Y0084750D01*
X0059696Y0084825D01*
X0059652Y0084902D01*
X0059612Y0084981D01*
X0059575Y0085061D01*
X0059543Y0085143D01*
X0059513Y0085227D01*
X0059488Y0085311D01*
X0059466Y0085397D01*
X0059449Y0085483D01*
X0059435Y0085571D01*
X0059425Y0085659D01*
X0059419Y0085747D01*
X0059417Y0085835D01*
X0083039Y0085835D02*
X0083041Y0085923D01*
X0083047Y0086011D01*
X0083057Y0086099D01*
X0083071Y0086187D01*
X0083088Y0086273D01*
X0083110Y0086359D01*
X0083135Y0086443D01*
X0083165Y0086527D01*
X0083197Y0086609D01*
X0083234Y0086689D01*
X0083274Y0086768D01*
X0083318Y0086845D01*
X0083365Y0086920D01*
X0083415Y0086992D01*
X0083469Y0087063D01*
X0083525Y0087130D01*
X0083585Y0087196D01*
X0083647Y0087258D01*
X0083713Y0087318D01*
X0083780Y0087374D01*
X0083851Y0087428D01*
X0083923Y0087478D01*
X0083998Y0087525D01*
X0084075Y0087569D01*
X0084154Y0087609D01*
X0084234Y0087646D01*
X0084316Y0087678D01*
X0084400Y0087708D01*
X0084484Y0087733D01*
X0084570Y0087755D01*
X0084656Y0087772D01*
X0084744Y0087786D01*
X0084832Y0087796D01*
X0084920Y0087802D01*
X0085008Y0087804D01*
X0085096Y0087802D01*
X0085184Y0087796D01*
X0085272Y0087786D01*
X0085360Y0087772D01*
X0085446Y0087755D01*
X0085532Y0087733D01*
X0085616Y0087708D01*
X0085700Y0087678D01*
X0085782Y0087646D01*
X0085862Y0087609D01*
X0085941Y0087569D01*
X0086018Y0087525D01*
X0086093Y0087478D01*
X0086165Y0087428D01*
X0086236Y0087374D01*
X0086303Y0087318D01*
X0086369Y0087258D01*
X0086431Y0087196D01*
X0086491Y0087130D01*
X0086547Y0087063D01*
X0086601Y0086992D01*
X0086651Y0086920D01*
X0086698Y0086845D01*
X0086742Y0086768D01*
X0086782Y0086689D01*
X0086819Y0086609D01*
X0086851Y0086527D01*
X0086881Y0086443D01*
X0086906Y0086359D01*
X0086928Y0086273D01*
X0086945Y0086187D01*
X0086959Y0086099D01*
X0086969Y0086011D01*
X0086975Y0085923D01*
X0086977Y0085835D01*
X0086975Y0085747D01*
X0086969Y0085659D01*
X0086959Y0085571D01*
X0086945Y0085483D01*
X0086928Y0085397D01*
X0086906Y0085311D01*
X0086881Y0085227D01*
X0086851Y0085143D01*
X0086819Y0085061D01*
X0086782Y0084981D01*
X0086742Y0084902D01*
X0086698Y0084825D01*
X0086651Y0084750D01*
X0086601Y0084678D01*
X0086547Y0084607D01*
X0086491Y0084540D01*
X0086431Y0084474D01*
X0086369Y0084412D01*
X0086303Y0084352D01*
X0086236Y0084296D01*
X0086165Y0084242D01*
X0086093Y0084192D01*
X0086018Y0084145D01*
X0085941Y0084101D01*
X0085862Y0084061D01*
X0085782Y0084024D01*
X0085700Y0083992D01*
X0085616Y0083962D01*
X0085532Y0083937D01*
X0085446Y0083915D01*
X0085360Y0083898D01*
X0085272Y0083884D01*
X0085184Y0083874D01*
X0085096Y0083868D01*
X0085008Y0083866D01*
X0084920Y0083868D01*
X0084832Y0083874D01*
X0084744Y0083884D01*
X0084656Y0083898D01*
X0084570Y0083915D01*
X0084484Y0083937D01*
X0084400Y0083962D01*
X0084316Y0083992D01*
X0084234Y0084024D01*
X0084154Y0084061D01*
X0084075Y0084101D01*
X0083998Y0084145D01*
X0083923Y0084192D01*
X0083851Y0084242D01*
X0083780Y0084296D01*
X0083713Y0084352D01*
X0083647Y0084412D01*
X0083585Y0084474D01*
X0083525Y0084540D01*
X0083469Y0084607D01*
X0083415Y0084678D01*
X0083365Y0084750D01*
X0083318Y0084825D01*
X0083274Y0084902D01*
X0083234Y0084981D01*
X0083197Y0085061D01*
X0083165Y0085143D01*
X0083135Y0085227D01*
X0083110Y0085311D01*
X0083088Y0085397D01*
X0083071Y0085483D01*
X0083057Y0085571D01*
X0083047Y0085659D01*
X0083041Y0085747D01*
X0083039Y0085835D01*
X0104110Y0057000D02*
X0104112Y0057169D01*
X0104118Y0057338D01*
X0104129Y0057507D01*
X0104143Y0057675D01*
X0104162Y0057843D01*
X0104185Y0058011D01*
X0104211Y0058178D01*
X0104242Y0058344D01*
X0104277Y0058510D01*
X0104316Y0058674D01*
X0104360Y0058838D01*
X0104407Y0059000D01*
X0104458Y0059161D01*
X0104513Y0059321D01*
X0104572Y0059480D01*
X0104634Y0059637D01*
X0104701Y0059792D01*
X0104772Y0059946D01*
X0104846Y0060098D01*
X0104924Y0060248D01*
X0105005Y0060396D01*
X0105090Y0060542D01*
X0105179Y0060686D01*
X0105271Y0060828D01*
X0105367Y0060967D01*
X0105466Y0061104D01*
X0105568Y0061239D01*
X0105674Y0061371D01*
X0105783Y0061500D01*
X0105895Y0061627D01*
X0106010Y0061751D01*
X0106128Y0061872D01*
X0106249Y0061990D01*
X0106373Y0062105D01*
X0106500Y0062217D01*
X0106629Y0062326D01*
X0106761Y0062432D01*
X0106896Y0062534D01*
X0107033Y0062633D01*
X0107172Y0062729D01*
X0107314Y0062821D01*
X0107458Y0062910D01*
X0107604Y0062995D01*
X0107752Y0063076D01*
X0107902Y0063154D01*
X0108054Y0063228D01*
X0108208Y0063299D01*
X0108363Y0063366D01*
X0108520Y0063428D01*
X0108679Y0063487D01*
X0108839Y0063542D01*
X0109000Y0063593D01*
X0109162Y0063640D01*
X0109326Y0063684D01*
X0109490Y0063723D01*
X0109656Y0063758D01*
X0109822Y0063789D01*
X0109989Y0063815D01*
X0110157Y0063838D01*
X0110325Y0063857D01*
X0110493Y0063871D01*
X0110662Y0063882D01*
X0110831Y0063888D01*
X0111000Y0063890D01*
X0111169Y0063888D01*
X0111338Y0063882D01*
X0111507Y0063871D01*
X0111675Y0063857D01*
X0111843Y0063838D01*
X0112011Y0063815D01*
X0112178Y0063789D01*
X0112344Y0063758D01*
X0112510Y0063723D01*
X0112674Y0063684D01*
X0112838Y0063640D01*
X0113000Y0063593D01*
X0113161Y0063542D01*
X0113321Y0063487D01*
X0113480Y0063428D01*
X0113637Y0063366D01*
X0113792Y0063299D01*
X0113946Y0063228D01*
X0114098Y0063154D01*
X0114248Y0063076D01*
X0114396Y0062995D01*
X0114542Y0062910D01*
X0114686Y0062821D01*
X0114828Y0062729D01*
X0114967Y0062633D01*
X0115104Y0062534D01*
X0115239Y0062432D01*
X0115371Y0062326D01*
X0115500Y0062217D01*
X0115627Y0062105D01*
X0115751Y0061990D01*
X0115872Y0061872D01*
X0115990Y0061751D01*
X0116105Y0061627D01*
X0116217Y0061500D01*
X0116326Y0061371D01*
X0116432Y0061239D01*
X0116534Y0061104D01*
X0116633Y0060967D01*
X0116729Y0060828D01*
X0116821Y0060686D01*
X0116910Y0060542D01*
X0116995Y0060396D01*
X0117076Y0060248D01*
X0117154Y0060098D01*
X0117228Y0059946D01*
X0117299Y0059792D01*
X0117366Y0059637D01*
X0117428Y0059480D01*
X0117487Y0059321D01*
X0117542Y0059161D01*
X0117593Y0059000D01*
X0117640Y0058838D01*
X0117684Y0058674D01*
X0117723Y0058510D01*
X0117758Y0058344D01*
X0117789Y0058178D01*
X0117815Y0058011D01*
X0117838Y0057843D01*
X0117857Y0057675D01*
X0117871Y0057507D01*
X0117882Y0057338D01*
X0117888Y0057169D01*
X0117890Y0057000D01*
X0117888Y0056831D01*
X0117882Y0056662D01*
X0117871Y0056493D01*
X0117857Y0056325D01*
X0117838Y0056157D01*
X0117815Y0055989D01*
X0117789Y0055822D01*
X0117758Y0055656D01*
X0117723Y0055490D01*
X0117684Y0055326D01*
X0117640Y0055162D01*
X0117593Y0055000D01*
X0117542Y0054839D01*
X0117487Y0054679D01*
X0117428Y0054520D01*
X0117366Y0054363D01*
X0117299Y0054208D01*
X0117228Y0054054D01*
X0117154Y0053902D01*
X0117076Y0053752D01*
X0116995Y0053604D01*
X0116910Y0053458D01*
X0116821Y0053314D01*
X0116729Y0053172D01*
X0116633Y0053033D01*
X0116534Y0052896D01*
X0116432Y0052761D01*
X0116326Y0052629D01*
X0116217Y0052500D01*
X0116105Y0052373D01*
X0115990Y0052249D01*
X0115872Y0052128D01*
X0115751Y0052010D01*
X0115627Y0051895D01*
X0115500Y0051783D01*
X0115371Y0051674D01*
X0115239Y0051568D01*
X0115104Y0051466D01*
X0114967Y0051367D01*
X0114828Y0051271D01*
X0114686Y0051179D01*
X0114542Y0051090D01*
X0114396Y0051005D01*
X0114248Y0050924D01*
X0114098Y0050846D01*
X0113946Y0050772D01*
X0113792Y0050701D01*
X0113637Y0050634D01*
X0113480Y0050572D01*
X0113321Y0050513D01*
X0113161Y0050458D01*
X0113000Y0050407D01*
X0112838Y0050360D01*
X0112674Y0050316D01*
X0112510Y0050277D01*
X0112344Y0050242D01*
X0112178Y0050211D01*
X0112011Y0050185D01*
X0111843Y0050162D01*
X0111675Y0050143D01*
X0111507Y0050129D01*
X0111338Y0050118D01*
X0111169Y0050112D01*
X0111000Y0050110D01*
X0110831Y0050112D01*
X0110662Y0050118D01*
X0110493Y0050129D01*
X0110325Y0050143D01*
X0110157Y0050162D01*
X0109989Y0050185D01*
X0109822Y0050211D01*
X0109656Y0050242D01*
X0109490Y0050277D01*
X0109326Y0050316D01*
X0109162Y0050360D01*
X0109000Y0050407D01*
X0108839Y0050458D01*
X0108679Y0050513D01*
X0108520Y0050572D01*
X0108363Y0050634D01*
X0108208Y0050701D01*
X0108054Y0050772D01*
X0107902Y0050846D01*
X0107752Y0050924D01*
X0107604Y0051005D01*
X0107458Y0051090D01*
X0107314Y0051179D01*
X0107172Y0051271D01*
X0107033Y0051367D01*
X0106896Y0051466D01*
X0106761Y0051568D01*
X0106629Y0051674D01*
X0106500Y0051783D01*
X0106373Y0051895D01*
X0106249Y0052010D01*
X0106128Y0052128D01*
X0106010Y0052249D01*
X0105895Y0052373D01*
X0105783Y0052500D01*
X0105674Y0052629D01*
X0105568Y0052761D01*
X0105466Y0052896D01*
X0105367Y0053033D01*
X0105271Y0053172D01*
X0105179Y0053314D01*
X0105090Y0053458D01*
X0105005Y0053604D01*
X0104924Y0053752D01*
X0104846Y0053902D01*
X0104772Y0054054D01*
X0104701Y0054208D01*
X0104634Y0054363D01*
X0104572Y0054520D01*
X0104513Y0054679D01*
X0104458Y0054839D01*
X0104407Y0055000D01*
X0104360Y0055162D01*
X0104316Y0055326D01*
X0104277Y0055490D01*
X0104242Y0055656D01*
X0104211Y0055822D01*
X0104185Y0055989D01*
X0104162Y0056157D01*
X0104143Y0056325D01*
X0104129Y0056493D01*
X0104118Y0056662D01*
X0104112Y0056831D01*
X0104110Y0057000D01*
X0083039Y0196071D02*
X0083041Y0196159D01*
X0083047Y0196247D01*
X0083057Y0196335D01*
X0083071Y0196423D01*
X0083088Y0196509D01*
X0083110Y0196595D01*
X0083135Y0196679D01*
X0083165Y0196763D01*
X0083197Y0196845D01*
X0083234Y0196925D01*
X0083274Y0197004D01*
X0083318Y0197081D01*
X0083365Y0197156D01*
X0083415Y0197228D01*
X0083469Y0197299D01*
X0083525Y0197366D01*
X0083585Y0197432D01*
X0083647Y0197494D01*
X0083713Y0197554D01*
X0083780Y0197610D01*
X0083851Y0197664D01*
X0083923Y0197714D01*
X0083998Y0197761D01*
X0084075Y0197805D01*
X0084154Y0197845D01*
X0084234Y0197882D01*
X0084316Y0197914D01*
X0084400Y0197944D01*
X0084484Y0197969D01*
X0084570Y0197991D01*
X0084656Y0198008D01*
X0084744Y0198022D01*
X0084832Y0198032D01*
X0084920Y0198038D01*
X0085008Y0198040D01*
X0085096Y0198038D01*
X0085184Y0198032D01*
X0085272Y0198022D01*
X0085360Y0198008D01*
X0085446Y0197991D01*
X0085532Y0197969D01*
X0085616Y0197944D01*
X0085700Y0197914D01*
X0085782Y0197882D01*
X0085862Y0197845D01*
X0085941Y0197805D01*
X0086018Y0197761D01*
X0086093Y0197714D01*
X0086165Y0197664D01*
X0086236Y0197610D01*
X0086303Y0197554D01*
X0086369Y0197494D01*
X0086431Y0197432D01*
X0086491Y0197366D01*
X0086547Y0197299D01*
X0086601Y0197228D01*
X0086651Y0197156D01*
X0086698Y0197081D01*
X0086742Y0197004D01*
X0086782Y0196925D01*
X0086819Y0196845D01*
X0086851Y0196763D01*
X0086881Y0196679D01*
X0086906Y0196595D01*
X0086928Y0196509D01*
X0086945Y0196423D01*
X0086959Y0196335D01*
X0086969Y0196247D01*
X0086975Y0196159D01*
X0086977Y0196071D01*
X0086975Y0195983D01*
X0086969Y0195895D01*
X0086959Y0195807D01*
X0086945Y0195719D01*
X0086928Y0195633D01*
X0086906Y0195547D01*
X0086881Y0195463D01*
X0086851Y0195379D01*
X0086819Y0195297D01*
X0086782Y0195217D01*
X0086742Y0195138D01*
X0086698Y0195061D01*
X0086651Y0194986D01*
X0086601Y0194914D01*
X0086547Y0194843D01*
X0086491Y0194776D01*
X0086431Y0194710D01*
X0086369Y0194648D01*
X0086303Y0194588D01*
X0086236Y0194532D01*
X0086165Y0194478D01*
X0086093Y0194428D01*
X0086018Y0194381D01*
X0085941Y0194337D01*
X0085862Y0194297D01*
X0085782Y0194260D01*
X0085700Y0194228D01*
X0085616Y0194198D01*
X0085532Y0194173D01*
X0085446Y0194151D01*
X0085360Y0194134D01*
X0085272Y0194120D01*
X0085184Y0194110D01*
X0085096Y0194104D01*
X0085008Y0194102D01*
X0084920Y0194104D01*
X0084832Y0194110D01*
X0084744Y0194120D01*
X0084656Y0194134D01*
X0084570Y0194151D01*
X0084484Y0194173D01*
X0084400Y0194198D01*
X0084316Y0194228D01*
X0084234Y0194260D01*
X0084154Y0194297D01*
X0084075Y0194337D01*
X0083998Y0194381D01*
X0083923Y0194428D01*
X0083851Y0194478D01*
X0083780Y0194532D01*
X0083713Y0194588D01*
X0083647Y0194648D01*
X0083585Y0194710D01*
X0083525Y0194776D01*
X0083469Y0194843D01*
X0083415Y0194914D01*
X0083365Y0194986D01*
X0083318Y0195061D01*
X0083274Y0195138D01*
X0083234Y0195217D01*
X0083197Y0195297D01*
X0083165Y0195379D01*
X0083135Y0195463D01*
X0083110Y0195547D01*
X0083088Y0195633D01*
X0083071Y0195719D01*
X0083057Y0195807D01*
X0083047Y0195895D01*
X0083041Y0195983D01*
X0083039Y0196071D01*
X0059417Y0196071D02*
X0059419Y0196159D01*
X0059425Y0196247D01*
X0059435Y0196335D01*
X0059449Y0196423D01*
X0059466Y0196509D01*
X0059488Y0196595D01*
X0059513Y0196679D01*
X0059543Y0196763D01*
X0059575Y0196845D01*
X0059612Y0196925D01*
X0059652Y0197004D01*
X0059696Y0197081D01*
X0059743Y0197156D01*
X0059793Y0197228D01*
X0059847Y0197299D01*
X0059903Y0197366D01*
X0059963Y0197432D01*
X0060025Y0197494D01*
X0060091Y0197554D01*
X0060158Y0197610D01*
X0060229Y0197664D01*
X0060301Y0197714D01*
X0060376Y0197761D01*
X0060453Y0197805D01*
X0060532Y0197845D01*
X0060612Y0197882D01*
X0060694Y0197914D01*
X0060778Y0197944D01*
X0060862Y0197969D01*
X0060948Y0197991D01*
X0061034Y0198008D01*
X0061122Y0198022D01*
X0061210Y0198032D01*
X0061298Y0198038D01*
X0061386Y0198040D01*
X0061474Y0198038D01*
X0061562Y0198032D01*
X0061650Y0198022D01*
X0061738Y0198008D01*
X0061824Y0197991D01*
X0061910Y0197969D01*
X0061994Y0197944D01*
X0062078Y0197914D01*
X0062160Y0197882D01*
X0062240Y0197845D01*
X0062319Y0197805D01*
X0062396Y0197761D01*
X0062471Y0197714D01*
X0062543Y0197664D01*
X0062614Y0197610D01*
X0062681Y0197554D01*
X0062747Y0197494D01*
X0062809Y0197432D01*
X0062869Y0197366D01*
X0062925Y0197299D01*
X0062979Y0197228D01*
X0063029Y0197156D01*
X0063076Y0197081D01*
X0063120Y0197004D01*
X0063160Y0196925D01*
X0063197Y0196845D01*
X0063229Y0196763D01*
X0063259Y0196679D01*
X0063284Y0196595D01*
X0063306Y0196509D01*
X0063323Y0196423D01*
X0063337Y0196335D01*
X0063347Y0196247D01*
X0063353Y0196159D01*
X0063355Y0196071D01*
X0063353Y0195983D01*
X0063347Y0195895D01*
X0063337Y0195807D01*
X0063323Y0195719D01*
X0063306Y0195633D01*
X0063284Y0195547D01*
X0063259Y0195463D01*
X0063229Y0195379D01*
X0063197Y0195297D01*
X0063160Y0195217D01*
X0063120Y0195138D01*
X0063076Y0195061D01*
X0063029Y0194986D01*
X0062979Y0194914D01*
X0062925Y0194843D01*
X0062869Y0194776D01*
X0062809Y0194710D01*
X0062747Y0194648D01*
X0062681Y0194588D01*
X0062614Y0194532D01*
X0062543Y0194478D01*
X0062471Y0194428D01*
X0062396Y0194381D01*
X0062319Y0194337D01*
X0062240Y0194297D01*
X0062160Y0194260D01*
X0062078Y0194228D01*
X0061994Y0194198D01*
X0061910Y0194173D01*
X0061824Y0194151D01*
X0061738Y0194134D01*
X0061650Y0194120D01*
X0061562Y0194110D01*
X0061474Y0194104D01*
X0061386Y0194102D01*
X0061298Y0194104D01*
X0061210Y0194110D01*
X0061122Y0194120D01*
X0061034Y0194134D01*
X0060948Y0194151D01*
X0060862Y0194173D01*
X0060778Y0194198D01*
X0060694Y0194228D01*
X0060612Y0194260D01*
X0060532Y0194297D01*
X0060453Y0194337D01*
X0060376Y0194381D01*
X0060301Y0194428D01*
X0060229Y0194478D01*
X0060158Y0194532D01*
X0060091Y0194588D01*
X0060025Y0194648D01*
X0059963Y0194710D01*
X0059903Y0194776D01*
X0059847Y0194843D01*
X0059793Y0194914D01*
X0059743Y0194986D01*
X0059696Y0195061D01*
X0059652Y0195138D01*
X0059612Y0195217D01*
X0059575Y0195297D01*
X0059543Y0195379D01*
X0059513Y0195463D01*
X0059488Y0195547D01*
X0059466Y0195633D01*
X0059449Y0195719D01*
X0059435Y0195807D01*
X0059425Y0195895D01*
X0059419Y0195983D01*
X0059417Y0196071D01*
X0103110Y0225000D02*
X0103112Y0225169D01*
X0103118Y0225338D01*
X0103129Y0225507D01*
X0103143Y0225675D01*
X0103162Y0225843D01*
X0103185Y0226011D01*
X0103211Y0226178D01*
X0103242Y0226344D01*
X0103277Y0226510D01*
X0103316Y0226674D01*
X0103360Y0226838D01*
X0103407Y0227000D01*
X0103458Y0227161D01*
X0103513Y0227321D01*
X0103572Y0227480D01*
X0103634Y0227637D01*
X0103701Y0227792D01*
X0103772Y0227946D01*
X0103846Y0228098D01*
X0103924Y0228248D01*
X0104005Y0228396D01*
X0104090Y0228542D01*
X0104179Y0228686D01*
X0104271Y0228828D01*
X0104367Y0228967D01*
X0104466Y0229104D01*
X0104568Y0229239D01*
X0104674Y0229371D01*
X0104783Y0229500D01*
X0104895Y0229627D01*
X0105010Y0229751D01*
X0105128Y0229872D01*
X0105249Y0229990D01*
X0105373Y0230105D01*
X0105500Y0230217D01*
X0105629Y0230326D01*
X0105761Y0230432D01*
X0105896Y0230534D01*
X0106033Y0230633D01*
X0106172Y0230729D01*
X0106314Y0230821D01*
X0106458Y0230910D01*
X0106604Y0230995D01*
X0106752Y0231076D01*
X0106902Y0231154D01*
X0107054Y0231228D01*
X0107208Y0231299D01*
X0107363Y0231366D01*
X0107520Y0231428D01*
X0107679Y0231487D01*
X0107839Y0231542D01*
X0108000Y0231593D01*
X0108162Y0231640D01*
X0108326Y0231684D01*
X0108490Y0231723D01*
X0108656Y0231758D01*
X0108822Y0231789D01*
X0108989Y0231815D01*
X0109157Y0231838D01*
X0109325Y0231857D01*
X0109493Y0231871D01*
X0109662Y0231882D01*
X0109831Y0231888D01*
X0110000Y0231890D01*
X0110169Y0231888D01*
X0110338Y0231882D01*
X0110507Y0231871D01*
X0110675Y0231857D01*
X0110843Y0231838D01*
X0111011Y0231815D01*
X0111178Y0231789D01*
X0111344Y0231758D01*
X0111510Y0231723D01*
X0111674Y0231684D01*
X0111838Y0231640D01*
X0112000Y0231593D01*
X0112161Y0231542D01*
X0112321Y0231487D01*
X0112480Y0231428D01*
X0112637Y0231366D01*
X0112792Y0231299D01*
X0112946Y0231228D01*
X0113098Y0231154D01*
X0113248Y0231076D01*
X0113396Y0230995D01*
X0113542Y0230910D01*
X0113686Y0230821D01*
X0113828Y0230729D01*
X0113967Y0230633D01*
X0114104Y0230534D01*
X0114239Y0230432D01*
X0114371Y0230326D01*
X0114500Y0230217D01*
X0114627Y0230105D01*
X0114751Y0229990D01*
X0114872Y0229872D01*
X0114990Y0229751D01*
X0115105Y0229627D01*
X0115217Y0229500D01*
X0115326Y0229371D01*
X0115432Y0229239D01*
X0115534Y0229104D01*
X0115633Y0228967D01*
X0115729Y0228828D01*
X0115821Y0228686D01*
X0115910Y0228542D01*
X0115995Y0228396D01*
X0116076Y0228248D01*
X0116154Y0228098D01*
X0116228Y0227946D01*
X0116299Y0227792D01*
X0116366Y0227637D01*
X0116428Y0227480D01*
X0116487Y0227321D01*
X0116542Y0227161D01*
X0116593Y0227000D01*
X0116640Y0226838D01*
X0116684Y0226674D01*
X0116723Y0226510D01*
X0116758Y0226344D01*
X0116789Y0226178D01*
X0116815Y0226011D01*
X0116838Y0225843D01*
X0116857Y0225675D01*
X0116871Y0225507D01*
X0116882Y0225338D01*
X0116888Y0225169D01*
X0116890Y0225000D01*
X0116888Y0224831D01*
X0116882Y0224662D01*
X0116871Y0224493D01*
X0116857Y0224325D01*
X0116838Y0224157D01*
X0116815Y0223989D01*
X0116789Y0223822D01*
X0116758Y0223656D01*
X0116723Y0223490D01*
X0116684Y0223326D01*
X0116640Y0223162D01*
X0116593Y0223000D01*
X0116542Y0222839D01*
X0116487Y0222679D01*
X0116428Y0222520D01*
X0116366Y0222363D01*
X0116299Y0222208D01*
X0116228Y0222054D01*
X0116154Y0221902D01*
X0116076Y0221752D01*
X0115995Y0221604D01*
X0115910Y0221458D01*
X0115821Y0221314D01*
X0115729Y0221172D01*
X0115633Y0221033D01*
X0115534Y0220896D01*
X0115432Y0220761D01*
X0115326Y0220629D01*
X0115217Y0220500D01*
X0115105Y0220373D01*
X0114990Y0220249D01*
X0114872Y0220128D01*
X0114751Y0220010D01*
X0114627Y0219895D01*
X0114500Y0219783D01*
X0114371Y0219674D01*
X0114239Y0219568D01*
X0114104Y0219466D01*
X0113967Y0219367D01*
X0113828Y0219271D01*
X0113686Y0219179D01*
X0113542Y0219090D01*
X0113396Y0219005D01*
X0113248Y0218924D01*
X0113098Y0218846D01*
X0112946Y0218772D01*
X0112792Y0218701D01*
X0112637Y0218634D01*
X0112480Y0218572D01*
X0112321Y0218513D01*
X0112161Y0218458D01*
X0112000Y0218407D01*
X0111838Y0218360D01*
X0111674Y0218316D01*
X0111510Y0218277D01*
X0111344Y0218242D01*
X0111178Y0218211D01*
X0111011Y0218185D01*
X0110843Y0218162D01*
X0110675Y0218143D01*
X0110507Y0218129D01*
X0110338Y0218118D01*
X0110169Y0218112D01*
X0110000Y0218110D01*
X0109831Y0218112D01*
X0109662Y0218118D01*
X0109493Y0218129D01*
X0109325Y0218143D01*
X0109157Y0218162D01*
X0108989Y0218185D01*
X0108822Y0218211D01*
X0108656Y0218242D01*
X0108490Y0218277D01*
X0108326Y0218316D01*
X0108162Y0218360D01*
X0108000Y0218407D01*
X0107839Y0218458D01*
X0107679Y0218513D01*
X0107520Y0218572D01*
X0107363Y0218634D01*
X0107208Y0218701D01*
X0107054Y0218772D01*
X0106902Y0218846D01*
X0106752Y0218924D01*
X0106604Y0219005D01*
X0106458Y0219090D01*
X0106314Y0219179D01*
X0106172Y0219271D01*
X0106033Y0219367D01*
X0105896Y0219466D01*
X0105761Y0219568D01*
X0105629Y0219674D01*
X0105500Y0219783D01*
X0105373Y0219895D01*
X0105249Y0220010D01*
X0105128Y0220128D01*
X0105010Y0220249D01*
X0104895Y0220373D01*
X0104783Y0220500D01*
X0104674Y0220629D01*
X0104568Y0220761D01*
X0104466Y0220896D01*
X0104367Y0221033D01*
X0104271Y0221172D01*
X0104179Y0221314D01*
X0104090Y0221458D01*
X0104005Y0221604D01*
X0103924Y0221752D01*
X0103846Y0221902D01*
X0103772Y0222054D01*
X0103701Y0222208D01*
X0103634Y0222363D01*
X0103572Y0222520D01*
X0103513Y0222679D01*
X0103458Y0222839D01*
X0103407Y0223000D01*
X0103360Y0223162D01*
X0103316Y0223326D01*
X0103277Y0223490D01*
X0103242Y0223656D01*
X0103211Y0223822D01*
X0103185Y0223989D01*
X0103162Y0224157D01*
X0103143Y0224325D01*
X0103129Y0224493D01*
X0103118Y0224662D01*
X0103112Y0224831D01*
X0103110Y0225000D01*
D12*
X0067188Y0059804D02*
X0067188Y0055200D01*
X0067188Y0056735D02*
X0069490Y0056735D01*
X0070257Y0057502D01*
X0070257Y0059037D01*
X0069490Y0059804D01*
X0067188Y0059804D01*
X0068723Y0056735D02*
X0070257Y0055200D01*
X0071792Y0055200D02*
X0074861Y0055200D01*
X0073327Y0055200D02*
X0073327Y0059804D01*
X0071792Y0058269D01*
X0076396Y0057502D02*
X0076396Y0055967D01*
X0077163Y0055200D01*
X0078698Y0055200D01*
X0079465Y0055967D01*
X0079465Y0056735D01*
X0078698Y0057502D01*
X0076396Y0057502D01*
X0077931Y0059037D01*
X0079465Y0059804D01*
X0119348Y0082803D02*
X0120883Y0082803D01*
X0120115Y0082803D02*
X0120115Y0087407D01*
X0119348Y0087407D02*
X0120883Y0087407D01*
X0122417Y0086640D02*
X0122417Y0083570D01*
X0123185Y0082803D01*
X0124719Y0082803D01*
X0125487Y0083570D01*
X0127021Y0082803D02*
X0130091Y0082803D01*
X0128556Y0082803D02*
X0128556Y0087407D01*
X0127021Y0085872D01*
X0125487Y0086640D02*
X0124719Y0087407D01*
X0123185Y0087407D01*
X0122417Y0086640D01*
X0129869Y0115031D02*
X0129869Y0117333D01*
X0130637Y0118100D01*
X0132171Y0118100D01*
X0132939Y0117333D01*
X0132939Y0115031D01*
X0134473Y0115031D02*
X0129869Y0115031D01*
X0132939Y0116565D02*
X0134473Y0118100D01*
X0134473Y0119635D02*
X0134473Y0122704D01*
X0134473Y0121169D02*
X0129869Y0121169D01*
X0131404Y0119635D01*
X0132171Y0124239D02*
X0132171Y0127308D01*
X0134473Y0126541D02*
X0129869Y0126541D01*
X0132171Y0124239D01*
X0137743Y0121937D02*
X0137743Y0120402D01*
X0138511Y0119635D01*
X0139278Y0119635D01*
X0140045Y0120402D01*
X0140045Y0122704D01*
X0138511Y0122704D02*
X0141580Y0122704D01*
X0142347Y0121937D01*
X0142347Y0120402D01*
X0141580Y0119635D01*
X0142347Y0118100D02*
X0140813Y0116565D01*
X0140813Y0117333D02*
X0140813Y0115031D01*
X0142347Y0115031D02*
X0137743Y0115031D01*
X0137743Y0117333D01*
X0138511Y0118100D01*
X0140045Y0118100D01*
X0140813Y0117333D01*
X0137743Y0121937D02*
X0138511Y0122704D01*
X0155617Y0117729D02*
X0155617Y0116194D01*
X0156385Y0115427D01*
X0157152Y0115427D01*
X0157919Y0116194D01*
X0157919Y0117729D01*
X0158687Y0118496D01*
X0159454Y0118496D01*
X0160221Y0117729D01*
X0160221Y0116194D01*
X0159454Y0115427D01*
X0158687Y0115427D01*
X0157919Y0116194D01*
X0157919Y0117729D02*
X0157152Y0118496D01*
X0156385Y0118496D01*
X0155617Y0117729D01*
X0156385Y0113892D02*
X0157919Y0113892D01*
X0158687Y0113125D01*
X0158687Y0110823D01*
X0160221Y0110823D02*
X0155617Y0110823D01*
X0155617Y0113125D01*
X0156385Y0113892D01*
X0158687Y0112357D02*
X0160221Y0113892D01*
X0163491Y0113125D02*
X0164259Y0113892D01*
X0165026Y0113892D01*
X0165793Y0113125D01*
X0166561Y0113892D01*
X0167328Y0113892D01*
X0168095Y0113125D01*
X0168095Y0111590D01*
X0167328Y0110823D01*
X0168095Y0109288D02*
X0166561Y0107754D01*
X0166561Y0108521D02*
X0166561Y0106219D01*
X0168095Y0106219D02*
X0163491Y0106219D01*
X0163491Y0108521D01*
X0164259Y0109288D01*
X0165793Y0109288D01*
X0166561Y0108521D01*
X0164259Y0110823D02*
X0163491Y0111590D01*
X0163491Y0113125D01*
X0165793Y0113125D02*
X0165793Y0112357D01*
X0164259Y0115427D02*
X0163491Y0116194D01*
X0163491Y0117729D01*
X0164259Y0118496D01*
X0167328Y0115427D01*
X0168095Y0116194D01*
X0168095Y0117729D01*
X0167328Y0118496D01*
X0164259Y0118496D01*
X0164259Y0115427D02*
X0167328Y0115427D01*
X0171365Y0116961D02*
X0175969Y0116961D01*
X0175969Y0115427D02*
X0175969Y0118496D01*
X0179239Y0117729D02*
X0179239Y0116194D01*
X0180007Y0115427D01*
X0180007Y0113892D02*
X0181541Y0113892D01*
X0182309Y0113125D01*
X0182309Y0110823D01*
X0183843Y0110823D02*
X0179239Y0110823D01*
X0179239Y0113125D01*
X0180007Y0113892D01*
X0182309Y0112357D02*
X0183843Y0113892D01*
X0183843Y0115427D02*
X0180774Y0118496D01*
X0180007Y0118496D01*
X0179239Y0117729D01*
X0183843Y0118496D02*
X0183843Y0115427D01*
X0175969Y0113125D02*
X0175969Y0111590D01*
X0175202Y0110823D01*
X0175969Y0109288D02*
X0174435Y0107754D01*
X0174435Y0108521D02*
X0174435Y0106219D01*
X0175969Y0106219D02*
X0171365Y0106219D01*
X0171365Y0108521D01*
X0172133Y0109288D01*
X0173667Y0109288D01*
X0174435Y0108521D01*
X0172133Y0110823D02*
X0171365Y0111590D01*
X0171365Y0113125D01*
X0172133Y0113892D01*
X0172900Y0113892D01*
X0173667Y0113125D01*
X0174435Y0113892D01*
X0175202Y0113892D01*
X0175969Y0113125D01*
X0173667Y0113125D02*
X0173667Y0112357D01*
X0172900Y0115427D02*
X0171365Y0116961D01*
X0168095Y0153463D02*
X0163491Y0153463D01*
X0163491Y0155765D01*
X0164259Y0156532D01*
X0165793Y0156532D01*
X0166561Y0155765D01*
X0166561Y0153463D01*
X0166561Y0154998D02*
X0168095Y0156532D01*
X0168095Y0158067D02*
X0168095Y0161136D01*
X0168095Y0159602D02*
X0163491Y0159602D01*
X0165026Y0158067D01*
X0171365Y0158834D02*
X0172133Y0158067D01*
X0175202Y0158067D01*
X0175969Y0158834D01*
X0175969Y0160369D01*
X0175202Y0161136D01*
X0175969Y0162671D02*
X0172900Y0165740D01*
X0172133Y0165740D01*
X0171365Y0164973D01*
X0171365Y0163438D01*
X0172133Y0162671D01*
X0172309Y0162275D02*
X0172309Y0164577D01*
X0171541Y0165344D01*
X0170007Y0165344D01*
X0169239Y0164577D01*
X0169239Y0162275D01*
X0173843Y0162275D01*
X0172133Y0161136D02*
X0171365Y0160369D01*
X0171365Y0158834D01*
X0172309Y0163809D02*
X0173843Y0165344D01*
X0173843Y0166879D02*
X0173843Y0169948D01*
X0173843Y0168413D02*
X0169239Y0168413D01*
X0170774Y0166879D01*
X0168095Y0164973D02*
X0168095Y0163438D01*
X0167328Y0162671D01*
X0164259Y0165740D01*
X0167328Y0165740D01*
X0168095Y0164973D01*
X0167328Y0162671D02*
X0164259Y0162671D01*
X0163491Y0163438D01*
X0163491Y0164973D01*
X0164259Y0165740D01*
X0170774Y0171483D02*
X0169239Y0173017D01*
X0173843Y0173017D01*
X0173843Y0171483D02*
X0173843Y0174552D01*
X0175969Y0165740D02*
X0175969Y0162671D01*
X0150221Y0162275D02*
X0145617Y0162275D01*
X0145617Y0164577D01*
X0146385Y0165344D01*
X0147919Y0165344D01*
X0148687Y0164577D01*
X0148687Y0162275D01*
X0148687Y0163809D02*
X0150221Y0165344D01*
X0150221Y0166879D02*
X0149454Y0166879D01*
X0146385Y0169948D01*
X0145617Y0169948D01*
X0145617Y0166879D01*
X0114788Y0167646D02*
X0114021Y0166879D01*
X0114788Y0167646D02*
X0114788Y0169181D01*
X0114021Y0169948D01*
X0113254Y0169948D01*
X0112486Y0169181D01*
X0112486Y0168413D01*
X0112486Y0169181D02*
X0111719Y0169948D01*
X0110952Y0169948D01*
X0110184Y0169181D01*
X0110184Y0167646D01*
X0110952Y0166879D01*
X0110952Y0165344D02*
X0112486Y0165344D01*
X0113254Y0164577D01*
X0113254Y0162275D01*
X0114788Y0162275D02*
X0110184Y0162275D01*
X0110184Y0164577D01*
X0110952Y0165344D01*
X0113254Y0163809D02*
X0114788Y0165344D01*
X0106914Y0165344D02*
X0105380Y0163809D01*
X0105380Y0164577D02*
X0105380Y0162275D01*
X0106914Y0162275D02*
X0102310Y0162275D01*
X0102310Y0164577D01*
X0103078Y0165344D01*
X0104612Y0165344D01*
X0105380Y0164577D01*
X0106914Y0166879D02*
X0106914Y0169948D01*
X0106914Y0168413D02*
X0102310Y0168413D01*
X0103845Y0166879D01*
X0085662Y0150068D02*
X0085662Y0145464D01*
X0084128Y0145464D02*
X0087197Y0145464D01*
X0086390Y0142351D02*
X0084855Y0142351D01*
X0084088Y0141584D01*
X0084088Y0138515D01*
X0087157Y0141584D01*
X0087157Y0138515D01*
X0086390Y0137747D01*
X0084855Y0137747D01*
X0084088Y0138515D01*
X0082554Y0137747D02*
X0079484Y0137747D01*
X0082554Y0140817D01*
X0082554Y0141584D01*
X0081786Y0142351D01*
X0080252Y0142351D01*
X0079484Y0141584D01*
X0077950Y0141584D02*
X0077182Y0142351D01*
X0074880Y0142351D01*
X0074880Y0137747D01*
X0074880Y0139282D02*
X0077182Y0139282D01*
X0077950Y0140049D01*
X0077950Y0141584D01*
X0076415Y0139282D02*
X0077950Y0137747D01*
X0080252Y0134320D02*
X0079484Y0133552D01*
X0079484Y0130483D01*
X0080252Y0129716D01*
X0081786Y0129716D01*
X0082554Y0130483D01*
X0084088Y0130483D02*
X0084855Y0129716D01*
X0086390Y0129716D01*
X0087157Y0130483D01*
X0087157Y0132018D01*
X0086390Y0132785D01*
X0085623Y0132785D01*
X0084088Y0132018D01*
X0084088Y0134320D01*
X0087157Y0134320D01*
X0082554Y0133552D02*
X0081786Y0134320D01*
X0080252Y0134320D01*
X0087157Y0141584D02*
X0086390Y0142351D01*
X0082593Y0145464D02*
X0079524Y0145464D01*
X0082593Y0148533D01*
X0082593Y0149300D01*
X0081826Y0150068D01*
X0080291Y0150068D01*
X0079524Y0149300D01*
X0077989Y0149300D02*
X0077989Y0147766D01*
X0077222Y0146998D01*
X0074920Y0146998D01*
X0074920Y0145464D02*
X0074920Y0150068D01*
X0077222Y0150068D01*
X0077989Y0149300D01*
X0076454Y0146998D02*
X0077989Y0145464D01*
X0084128Y0148533D02*
X0085662Y0150068D01*
X0072918Y0160542D02*
X0072151Y0159775D01*
X0069082Y0159775D01*
X0068314Y0160542D01*
X0068314Y0162077D01*
X0069082Y0162844D01*
X0069849Y0164379D02*
X0068314Y0165913D01*
X0072918Y0165913D01*
X0072918Y0164379D02*
X0072918Y0167448D01*
X0072151Y0162844D02*
X0072918Y0162077D01*
X0072918Y0160542D01*
X0097996Y0191400D02*
X0097996Y0193702D01*
X0098763Y0194469D01*
X0100298Y0194469D01*
X0101065Y0193702D01*
X0101065Y0191400D01*
X0101065Y0192935D02*
X0102600Y0194469D01*
X0102600Y0196004D02*
X0102600Y0199073D01*
X0102600Y0197539D02*
X0097996Y0197539D01*
X0099531Y0196004D01*
X0098763Y0200608D02*
X0097996Y0201375D01*
X0097996Y0202910D01*
X0098763Y0203677D01*
X0099531Y0203677D01*
X0100298Y0202910D01*
X0101065Y0203677D01*
X0101833Y0203677D01*
X0102600Y0202910D01*
X0102600Y0201375D01*
X0101833Y0200608D01*
X0100298Y0202142D02*
X0100298Y0202910D01*
X0102600Y0191400D02*
X0097996Y0191400D01*
X0110952Y0127308D02*
X0110184Y0126541D01*
X0110184Y0125006D01*
X0110952Y0124239D01*
X0110952Y0127308D02*
X0111719Y0127308D01*
X0114788Y0124239D01*
X0114788Y0127308D01*
X0114788Y0122704D02*
X0114788Y0119635D01*
X0114788Y0121169D02*
X0110184Y0121169D01*
X0111719Y0119635D01*
X0110952Y0118100D02*
X0112486Y0118100D01*
X0113254Y0117333D01*
X0113254Y0115031D01*
X0114788Y0115031D02*
X0110184Y0115031D01*
X0110184Y0117333D01*
X0110952Y0118100D01*
X0113254Y0116565D02*
X0114788Y0118100D01*
X0106914Y0118100D02*
X0105380Y0116565D01*
X0105380Y0117333D02*
X0105380Y0115031D01*
X0106914Y0115031D02*
X0102310Y0115031D01*
X0102310Y0117333D01*
X0103078Y0118100D01*
X0104612Y0118100D01*
X0105380Y0117333D01*
X0104612Y0119635D02*
X0106147Y0119635D01*
X0106914Y0120402D01*
X0106914Y0121937D01*
X0106147Y0122704D01*
X0105380Y0122704D01*
X0104612Y0121937D01*
X0104612Y0119635D01*
X0103078Y0121169D01*
X0102310Y0122704D01*
X0099040Y0121937D02*
X0099040Y0120402D01*
X0098273Y0119635D01*
X0098273Y0118100D02*
X0099040Y0117333D01*
X0099040Y0115798D01*
X0098273Y0115031D01*
X0095204Y0115031D01*
X0094436Y0115798D01*
X0094436Y0117333D01*
X0095204Y0118100D01*
X0095204Y0119635D02*
X0094436Y0120402D01*
X0094436Y0121937D01*
X0095204Y0122704D01*
X0095971Y0122704D01*
X0096738Y0121937D01*
X0097506Y0122704D01*
X0098273Y0122704D01*
X0099040Y0121937D01*
X0096738Y0121937D02*
X0096738Y0121169D01*
X0087157Y0124144D02*
X0084088Y0124144D01*
X0086390Y0126446D01*
X0086390Y0121842D01*
X0082554Y0122609D02*
X0081786Y0121842D01*
X0080252Y0121842D01*
X0079484Y0122609D01*
X0079484Y0125678D01*
X0080252Y0126446D01*
X0081786Y0126446D01*
X0082554Y0125678D01*
X0218846Y0066236D02*
X0218846Y0064701D01*
X0219613Y0063934D01*
X0220380Y0063934D01*
X0221148Y0064701D01*
X0221148Y0066236D01*
X0221915Y0067003D01*
X0222682Y0067003D01*
X0223450Y0066236D01*
X0223450Y0064701D01*
X0222682Y0063934D01*
X0221915Y0063934D01*
X0221148Y0064701D01*
X0221148Y0066236D02*
X0220380Y0067003D01*
X0219613Y0067003D01*
X0218846Y0066236D01*
X0219613Y0062399D02*
X0218846Y0061632D01*
X0218846Y0060097D01*
X0219613Y0059330D01*
X0222682Y0059330D01*
X0223450Y0060097D01*
X0223450Y0061632D01*
X0222682Y0062399D01*
X0229121Y0061648D02*
X0229121Y0059346D01*
X0233725Y0059346D01*
X0232191Y0059346D02*
X0232191Y0061648D01*
X0231423Y0062415D01*
X0229889Y0062415D01*
X0229121Y0061648D01*
X0229121Y0063950D02*
X0231423Y0063950D01*
X0230656Y0065484D01*
X0230656Y0066252D01*
X0231423Y0067019D01*
X0232958Y0067019D01*
X0233725Y0066252D01*
X0233725Y0064717D01*
X0232958Y0063950D01*
X0233725Y0062415D02*
X0232191Y0060880D01*
X0229121Y0063950D02*
X0229121Y0067019D01*
X0231275Y0126330D02*
X0231275Y0132469D01*
X0232042Y0131702D02*
X0232809Y0130934D01*
X0232042Y0131702D02*
X0230507Y0131702D01*
X0229740Y0130934D01*
X0229740Y0130167D01*
X0230507Y0129400D01*
X0232042Y0129400D01*
X0232809Y0128632D01*
X0232809Y0127865D01*
X0232042Y0127098D01*
X0230507Y0127098D01*
X0229740Y0127865D01*
X0228206Y0127865D02*
X0228206Y0131702D01*
X0225136Y0131702D02*
X0225136Y0127865D01*
X0225904Y0127098D01*
X0227438Y0127098D01*
X0228206Y0127865D01*
X0234344Y0127098D02*
X0237413Y0127098D01*
X0235879Y0127098D02*
X0235879Y0131702D01*
X0234344Y0130167D01*
X0233298Y0184991D02*
X0233298Y0189595D01*
X0235600Y0189595D01*
X0236368Y0188828D01*
X0236368Y0187293D01*
X0235600Y0186526D01*
X0233298Y0186526D01*
X0234833Y0186526D02*
X0236368Y0184991D01*
X0237902Y0184991D02*
X0240972Y0184991D01*
X0239437Y0184991D02*
X0239437Y0189595D01*
X0237902Y0188061D01*
X0242506Y0187293D02*
X0244041Y0188061D01*
X0244808Y0188061D01*
X0245576Y0187293D01*
X0245576Y0185759D01*
X0244808Y0184991D01*
X0243274Y0184991D01*
X0242506Y0185759D01*
X0242506Y0187293D02*
X0242506Y0189595D01*
X0245576Y0189595D01*
X0240212Y0199291D02*
X0240212Y0203894D01*
X0237910Y0201593D01*
X0240980Y0201593D01*
X0236376Y0201593D02*
X0235608Y0200825D01*
X0233306Y0200825D01*
X0233306Y0199291D02*
X0233306Y0203894D01*
X0235608Y0203894D01*
X0236376Y0203127D01*
X0236376Y0201593D01*
X0234841Y0200825D02*
X0236376Y0199291D01*
X0223056Y0204412D02*
X0222289Y0203645D01*
X0219219Y0203645D01*
X0218452Y0204412D01*
X0218452Y0205947D01*
X0219219Y0206714D01*
X0218452Y0208249D02*
X0218452Y0211318D01*
X0219219Y0211318D01*
X0222289Y0208249D01*
X0223056Y0208249D01*
X0222289Y0206714D02*
X0223056Y0205947D01*
X0223056Y0204412D01*
D13*
X0135992Y0181466D02*
X0132843Y0181466D01*
X0135992Y0181466D02*
X0135992Y0179104D01*
X0135992Y0172805D02*
X0135992Y0170443D01*
X0132843Y0170443D01*
X0132843Y0169287D02*
X0135992Y0169287D01*
X0135992Y0166924D01*
X0135992Y0160625D02*
X0135992Y0158263D01*
X0132843Y0158263D01*
X0119063Y0150402D02*
X0119063Y0148433D01*
X0119063Y0150402D02*
X0117094Y0150402D01*
X0119063Y0133472D02*
X0119063Y0131504D01*
X0116701Y0131504D01*
X0102134Y0131504D02*
X0100165Y0131504D01*
X0100165Y0133472D01*
X0088354Y0123079D02*
X0075756Y0123079D01*
X0069299Y0127567D02*
X0063000Y0127567D01*
X0069299Y0127567D02*
X0069299Y0132291D01*
X0063787Y0132291D01*
X0063787Y0149614D01*
X0069299Y0149614D01*
X0069299Y0154339D01*
X0063000Y0154339D01*
X0071819Y0158276D02*
X0071819Y0170677D01*
X0078512Y0170677D01*
X0084453Y0169736D02*
X0084453Y0159512D01*
X0085992Y0158472D02*
X0090717Y0158472D01*
X0092291Y0159850D01*
X0092291Y0169496D01*
X0090717Y0170677D01*
X0085992Y0170677D01*
X0090717Y0170677D01*
X0078512Y0158276D02*
X0071819Y0158276D01*
X0052370Y0154339D02*
X0052370Y0127567D01*
X0075756Y0112843D02*
X0088354Y0112843D01*
X0108524Y0094803D02*
X0134327Y0094803D01*
X0134327Y0080803D01*
X0108524Y0080803D01*
X0108524Y0094803D01*
D14*
X0081430Y0119979D02*
X0080429Y0119979D01*
X0079956Y0119979D02*
X0078956Y0119979D01*
X0078956Y0121480D01*
X0080429Y0120980D02*
X0080929Y0121480D01*
X0080929Y0119979D01*
X0104664Y0153503D02*
X0105165Y0153503D01*
X0104914Y0153503D02*
X0104914Y0155004D01*
X0104664Y0155004D02*
X0105165Y0155004D01*
X0105646Y0154754D02*
X0105646Y0153753D01*
X0105897Y0153503D01*
X0106397Y0153503D01*
X0106647Y0153753D01*
X0107120Y0153753D02*
X0107370Y0153503D01*
X0107870Y0153503D01*
X0108120Y0153753D01*
X0108120Y0154003D01*
X0107870Y0154253D01*
X0107620Y0154253D01*
X0107870Y0154253D02*
X0108120Y0154504D01*
X0108120Y0154754D01*
X0107870Y0155004D01*
X0107370Y0155004D01*
X0107120Y0154754D01*
X0106647Y0154754D02*
X0106397Y0155004D01*
X0105897Y0155004D01*
X0105646Y0154754D01*
X0140285Y0164378D02*
X0140285Y0164879D01*
X0140535Y0165129D01*
X0141536Y0165129D01*
X0141786Y0164879D01*
X0141786Y0164378D01*
X0141536Y0164128D01*
X0140535Y0164128D01*
X0140285Y0164378D01*
X0141286Y0164629D02*
X0141786Y0165129D01*
X0141786Y0165602D02*
X0141786Y0166602D01*
X0141786Y0166102D02*
X0140285Y0166102D01*
X0140785Y0165602D01*
X0140535Y0176308D02*
X0140285Y0176558D01*
X0140285Y0177058D01*
X0140535Y0177309D01*
X0141536Y0177309D01*
X0141786Y0177058D01*
X0141786Y0176558D01*
X0141536Y0176308D01*
X0140535Y0176308D01*
X0141286Y0176808D02*
X0141786Y0177309D01*
X0141536Y0177781D02*
X0141786Y0178031D01*
X0141786Y0178532D01*
X0141536Y0178782D01*
X0141286Y0178782D01*
X0141036Y0178532D01*
X0141036Y0178281D01*
X0141036Y0178532D02*
X0140785Y0178782D01*
X0140535Y0178782D01*
X0140285Y0178532D01*
X0140285Y0178031D01*
X0140535Y0177781D01*
D15*
X0098787Y0186228D02*
X0098787Y0205913D01*
X0049575Y0205913D01*
X0049575Y0203945D01*
X0043669Y0203945D01*
X0043669Y0188197D01*
X0049575Y0188197D01*
X0049575Y0186228D01*
X0098787Y0186228D01*
X0082477Y0238376D02*
X0081348Y0239989D01*
X0087798Y0244505D01*
X0088927Y0242893D01*
X0147016Y0259063D02*
X0147016Y0261031D01*
X0154890Y0261031D01*
X0154890Y0259063D01*
X0187055Y0221661D02*
X0187055Y0198039D01*
X0221150Y0198039D01*
X0221150Y0221661D01*
X0187055Y0221661D01*
X0210852Y0243641D02*
X0211981Y0245253D01*
X0218431Y0240737D01*
X0217302Y0239124D01*
X0259112Y0190291D02*
X0260938Y0191028D01*
X0263887Y0183727D01*
X0262062Y0182990D01*
X0273000Y0172449D02*
X0273000Y0109457D01*
X0186386Y0109457D01*
X0186386Y0172449D01*
X0273000Y0172449D01*
X0262338Y0098010D02*
X0264163Y0097273D01*
X0261213Y0089972D01*
X0259388Y0090709D01*
X0221150Y0083866D02*
X0221150Y0060244D01*
X0187055Y0060244D01*
X0187055Y0083866D01*
X0221150Y0083866D01*
X0217499Y0042663D02*
X0218628Y0041051D01*
X0212178Y0036534D01*
X0211049Y0038147D01*
X0154890Y0022843D02*
X0154890Y0020874D01*
X0147016Y0020874D01*
X0147016Y0022843D01*
X0088927Y0039013D02*
X0087798Y0037400D01*
X0081348Y0041917D01*
X0082477Y0043529D01*
X0098787Y0075992D02*
X0049575Y0075992D01*
X0049575Y0077961D01*
X0043669Y0077961D01*
X0043669Y0093709D01*
X0049575Y0093709D01*
X0049575Y0095677D01*
X0098787Y0095677D01*
X0098787Y0075992D01*
D16*
X0139142Y0129142D02*
X0139142Y0152764D01*
X0162764Y0152764D01*
X0162764Y0129142D01*
X0139142Y0129142D01*
X0144063Y0140953D02*
X0144065Y0141122D01*
X0144071Y0141291D01*
X0144082Y0141460D01*
X0144096Y0141628D01*
X0144115Y0141796D01*
X0144138Y0141964D01*
X0144164Y0142131D01*
X0144195Y0142297D01*
X0144230Y0142463D01*
X0144269Y0142627D01*
X0144313Y0142791D01*
X0144360Y0142953D01*
X0144411Y0143114D01*
X0144466Y0143274D01*
X0144525Y0143433D01*
X0144587Y0143590D01*
X0144654Y0143745D01*
X0144725Y0143899D01*
X0144799Y0144051D01*
X0144877Y0144201D01*
X0144958Y0144349D01*
X0145043Y0144495D01*
X0145132Y0144639D01*
X0145224Y0144781D01*
X0145320Y0144920D01*
X0145419Y0145057D01*
X0145521Y0145192D01*
X0145627Y0145324D01*
X0145736Y0145453D01*
X0145848Y0145580D01*
X0145963Y0145704D01*
X0146081Y0145825D01*
X0146202Y0145943D01*
X0146326Y0146058D01*
X0146453Y0146170D01*
X0146582Y0146279D01*
X0146714Y0146385D01*
X0146849Y0146487D01*
X0146986Y0146586D01*
X0147125Y0146682D01*
X0147267Y0146774D01*
X0147411Y0146863D01*
X0147557Y0146948D01*
X0147705Y0147029D01*
X0147855Y0147107D01*
X0148007Y0147181D01*
X0148161Y0147252D01*
X0148316Y0147319D01*
X0148473Y0147381D01*
X0148632Y0147440D01*
X0148792Y0147495D01*
X0148953Y0147546D01*
X0149115Y0147593D01*
X0149279Y0147637D01*
X0149443Y0147676D01*
X0149609Y0147711D01*
X0149775Y0147742D01*
X0149942Y0147768D01*
X0150110Y0147791D01*
X0150278Y0147810D01*
X0150446Y0147824D01*
X0150615Y0147835D01*
X0150784Y0147841D01*
X0150953Y0147843D01*
X0151122Y0147841D01*
X0151291Y0147835D01*
X0151460Y0147824D01*
X0151628Y0147810D01*
X0151796Y0147791D01*
X0151964Y0147768D01*
X0152131Y0147742D01*
X0152297Y0147711D01*
X0152463Y0147676D01*
X0152627Y0147637D01*
X0152791Y0147593D01*
X0152953Y0147546D01*
X0153114Y0147495D01*
X0153274Y0147440D01*
X0153433Y0147381D01*
X0153590Y0147319D01*
X0153745Y0147252D01*
X0153899Y0147181D01*
X0154051Y0147107D01*
X0154201Y0147029D01*
X0154349Y0146948D01*
X0154495Y0146863D01*
X0154639Y0146774D01*
X0154781Y0146682D01*
X0154920Y0146586D01*
X0155057Y0146487D01*
X0155192Y0146385D01*
X0155324Y0146279D01*
X0155453Y0146170D01*
X0155580Y0146058D01*
X0155704Y0145943D01*
X0155825Y0145825D01*
X0155943Y0145704D01*
X0156058Y0145580D01*
X0156170Y0145453D01*
X0156279Y0145324D01*
X0156385Y0145192D01*
X0156487Y0145057D01*
X0156586Y0144920D01*
X0156682Y0144781D01*
X0156774Y0144639D01*
X0156863Y0144495D01*
X0156948Y0144349D01*
X0157029Y0144201D01*
X0157107Y0144051D01*
X0157181Y0143899D01*
X0157252Y0143745D01*
X0157319Y0143590D01*
X0157381Y0143433D01*
X0157440Y0143274D01*
X0157495Y0143114D01*
X0157546Y0142953D01*
X0157593Y0142791D01*
X0157637Y0142627D01*
X0157676Y0142463D01*
X0157711Y0142297D01*
X0157742Y0142131D01*
X0157768Y0141964D01*
X0157791Y0141796D01*
X0157810Y0141628D01*
X0157824Y0141460D01*
X0157835Y0141291D01*
X0157841Y0141122D01*
X0157843Y0140953D01*
X0157841Y0140784D01*
X0157835Y0140615D01*
X0157824Y0140446D01*
X0157810Y0140278D01*
X0157791Y0140110D01*
X0157768Y0139942D01*
X0157742Y0139775D01*
X0157711Y0139609D01*
X0157676Y0139443D01*
X0157637Y0139279D01*
X0157593Y0139115D01*
X0157546Y0138953D01*
X0157495Y0138792D01*
X0157440Y0138632D01*
X0157381Y0138473D01*
X0157319Y0138316D01*
X0157252Y0138161D01*
X0157181Y0138007D01*
X0157107Y0137855D01*
X0157029Y0137705D01*
X0156948Y0137557D01*
X0156863Y0137411D01*
X0156774Y0137267D01*
X0156682Y0137125D01*
X0156586Y0136986D01*
X0156487Y0136849D01*
X0156385Y0136714D01*
X0156279Y0136582D01*
X0156170Y0136453D01*
X0156058Y0136326D01*
X0155943Y0136202D01*
X0155825Y0136081D01*
X0155704Y0135963D01*
X0155580Y0135848D01*
X0155453Y0135736D01*
X0155324Y0135627D01*
X0155192Y0135521D01*
X0155057Y0135419D01*
X0154920Y0135320D01*
X0154781Y0135224D01*
X0154639Y0135132D01*
X0154495Y0135043D01*
X0154349Y0134958D01*
X0154201Y0134877D01*
X0154051Y0134799D01*
X0153899Y0134725D01*
X0153745Y0134654D01*
X0153590Y0134587D01*
X0153433Y0134525D01*
X0153274Y0134466D01*
X0153114Y0134411D01*
X0152953Y0134360D01*
X0152791Y0134313D01*
X0152627Y0134269D01*
X0152463Y0134230D01*
X0152297Y0134195D01*
X0152131Y0134164D01*
X0151964Y0134138D01*
X0151796Y0134115D01*
X0151628Y0134096D01*
X0151460Y0134082D01*
X0151291Y0134071D01*
X0151122Y0134065D01*
X0150953Y0134063D01*
X0150784Y0134065D01*
X0150615Y0134071D01*
X0150446Y0134082D01*
X0150278Y0134096D01*
X0150110Y0134115D01*
X0149942Y0134138D01*
X0149775Y0134164D01*
X0149609Y0134195D01*
X0149443Y0134230D01*
X0149279Y0134269D01*
X0149115Y0134313D01*
X0148953Y0134360D01*
X0148792Y0134411D01*
X0148632Y0134466D01*
X0148473Y0134525D01*
X0148316Y0134587D01*
X0148161Y0134654D01*
X0148007Y0134725D01*
X0147855Y0134799D01*
X0147705Y0134877D01*
X0147557Y0134958D01*
X0147411Y0135043D01*
X0147267Y0135132D01*
X0147125Y0135224D01*
X0146986Y0135320D01*
X0146849Y0135419D01*
X0146714Y0135521D01*
X0146582Y0135627D01*
X0146453Y0135736D01*
X0146326Y0135848D01*
X0146202Y0135963D01*
X0146081Y0136081D01*
X0145963Y0136202D01*
X0145848Y0136326D01*
X0145736Y0136453D01*
X0145627Y0136582D01*
X0145521Y0136714D01*
X0145419Y0136849D01*
X0145320Y0136986D01*
X0145224Y0137125D01*
X0145132Y0137267D01*
X0145043Y0137411D01*
X0144958Y0137557D01*
X0144877Y0137705D01*
X0144799Y0137855D01*
X0144725Y0138007D01*
X0144654Y0138161D01*
X0144587Y0138316D01*
X0144525Y0138473D01*
X0144466Y0138632D01*
X0144411Y0138792D01*
X0144360Y0138953D01*
X0144313Y0139115D01*
X0144269Y0139279D01*
X0144230Y0139443D01*
X0144195Y0139609D01*
X0144164Y0139775D01*
X0144138Y0139942D01*
X0144115Y0140110D01*
X0144096Y0140278D01*
X0144082Y0140446D01*
X0144071Y0140615D01*
X0144065Y0140784D01*
X0144063Y0140953D01*
D17*
X0059601Y0141827D02*
X0056798Y0141827D01*
X0056798Y0143228D01*
X0057265Y0143695D01*
X0058200Y0143695D01*
X0058667Y0143228D01*
X0058667Y0141827D01*
X0059134Y0140466D02*
X0056798Y0140466D01*
X0056798Y0139999D02*
X0056798Y0140933D01*
X0059134Y0140466D02*
X0059601Y0139999D01*
X0059601Y0139532D01*
X0059134Y0139065D01*
X0059601Y0144590D02*
X0057733Y0146458D01*
X0057265Y0146458D01*
X0056798Y0145991D01*
X0056798Y0145057D01*
X0057265Y0144590D01*
X0059601Y0144590D02*
X0059601Y0146458D01*
M02*
