G75*
%MOIN*%
%OFA0B0*%
%FSLAX25Y25*%
%IPPOS*%
%LPD*%
%AMOC8*
5,1,8,0,0,1.08239X$1,22.5*
%
%ADD10C,0.01600*%
%ADD11C,0.00000*%
%ADD12C,0.00500*%
D10*
X0049772Y0066937D02*
X0049772Y0214969D01*
X0051614Y0217418D01*
X0053515Y0219821D01*
X0055474Y0222176D01*
X0057491Y0224483D01*
X0059563Y0226740D01*
X0061690Y0228946D01*
X0063871Y0231099D01*
X0066103Y0233198D01*
X0068386Y0235242D01*
X0070719Y0237229D01*
X0073099Y0239158D01*
X0075526Y0241029D01*
X0077998Y0242840D01*
X0080513Y0244589D01*
X0083071Y0246277D01*
X0085669Y0247901D01*
X0088306Y0249462D01*
X0090981Y0250957D01*
X0093691Y0252387D01*
X0096435Y0253749D01*
X0099212Y0255044D01*
X0102020Y0256271D01*
X0104857Y0257429D01*
X0107722Y0258517D01*
X0110612Y0259534D01*
X0113526Y0260481D01*
X0116463Y0261355D01*
X0119420Y0262158D01*
X0122396Y0262888D01*
X0125389Y0263545D01*
X0128397Y0264129D01*
X0131419Y0264638D01*
X0134452Y0265074D01*
X0137494Y0265435D01*
X0140545Y0265722D01*
X0143602Y0265934D01*
X0146663Y0266071D01*
X0149727Y0266133D01*
X0152791Y0266120D01*
X0155854Y0266032D01*
X0158913Y0265869D01*
X0161968Y0265632D01*
X0165016Y0265319D01*
X0168056Y0264932D01*
X0171085Y0264471D01*
X0174102Y0263936D01*
X0177105Y0263327D01*
X0180093Y0262645D01*
X0183062Y0261890D01*
X0186013Y0261062D01*
X0188942Y0260163D01*
X0191848Y0259192D01*
X0194730Y0258150D01*
X0197585Y0257038D01*
X0200412Y0255857D01*
X0203210Y0254606D01*
X0205976Y0253288D01*
X0208708Y0251902D01*
X0211407Y0250450D01*
X0214068Y0248932D01*
X0216692Y0247349D01*
X0219277Y0245703D01*
X0221820Y0243994D01*
X0224321Y0242223D01*
X0226777Y0240392D01*
X0229188Y0238501D01*
X0231552Y0236551D01*
X0233868Y0234544D01*
X0236133Y0232481D01*
X0238348Y0230364D01*
X0240510Y0228192D01*
X0242619Y0225969D01*
X0244672Y0223695D01*
X0246669Y0221370D01*
X0248608Y0218998D01*
X0250489Y0216579D01*
X0252310Y0214115D01*
X0254071Y0211607D01*
X0255769Y0209056D01*
X0257404Y0206465D01*
X0258976Y0203835D01*
X0260482Y0201167D01*
X0261923Y0198462D01*
X0263297Y0195724D01*
X0264604Y0192952D01*
X0265843Y0190149D01*
X0267012Y0187317D01*
X0268112Y0184457D01*
X0269142Y0181571D01*
X0270101Y0178661D01*
X0270988Y0175728D01*
X0271803Y0172774D01*
X0272546Y0169802D01*
X0273215Y0166811D01*
X0273811Y0163806D01*
X0274334Y0160787D01*
X0274782Y0157755D01*
X0275156Y0154714D01*
X0275456Y0151665D01*
X0275681Y0148609D01*
X0275831Y0145548D01*
X0275906Y0142485D01*
X0275906Y0139421D01*
X0275831Y0136358D01*
X0275681Y0133297D01*
X0275456Y0130241D01*
X0275156Y0127192D01*
X0274782Y0124151D01*
X0274334Y0121119D01*
X0273811Y0118100D01*
X0273215Y0115095D01*
X0272546Y0112104D01*
X0271803Y0109132D01*
X0270988Y0106178D01*
X0270101Y0103245D01*
X0269142Y0100335D01*
X0268112Y0097449D01*
X0267012Y0094589D01*
X0265843Y0091757D01*
X0264604Y0088954D01*
X0263297Y0086182D01*
X0261923Y0083444D01*
X0260482Y0080739D01*
X0258976Y0078071D01*
X0257404Y0075441D01*
X0255769Y0072850D01*
X0254071Y0070299D01*
X0252310Y0067791D01*
X0250489Y0065327D01*
X0248608Y0062908D01*
X0246669Y0060536D01*
X0244672Y0058211D01*
X0242619Y0055937D01*
X0240510Y0053714D01*
X0238348Y0051542D01*
X0236133Y0049425D01*
X0233868Y0047362D01*
X0231552Y0045355D01*
X0229188Y0043405D01*
X0226777Y0041514D01*
X0224321Y0039683D01*
X0221820Y0037912D01*
X0219277Y0036203D01*
X0216692Y0034557D01*
X0214068Y0032974D01*
X0211407Y0031456D01*
X0208708Y0030004D01*
X0205976Y0028618D01*
X0203210Y0027300D01*
X0200412Y0026049D01*
X0197585Y0024868D01*
X0194730Y0023756D01*
X0191848Y0022714D01*
X0188942Y0021743D01*
X0186013Y0020844D01*
X0183062Y0020016D01*
X0180093Y0019261D01*
X0177105Y0018579D01*
X0174102Y0017970D01*
X0171085Y0017435D01*
X0168056Y0016974D01*
X0165016Y0016587D01*
X0161968Y0016274D01*
X0158913Y0016037D01*
X0155854Y0015874D01*
X0152791Y0015786D01*
X0149727Y0015773D01*
X0146663Y0015835D01*
X0143602Y0015972D01*
X0140545Y0016184D01*
X0137494Y0016471D01*
X0134452Y0016832D01*
X0131419Y0017268D01*
X0128397Y0017777D01*
X0125389Y0018361D01*
X0122396Y0019018D01*
X0119420Y0019748D01*
X0116463Y0020551D01*
X0113526Y0021425D01*
X0110612Y0022372D01*
X0107722Y0023389D01*
X0104857Y0024477D01*
X0102020Y0025635D01*
X0099212Y0026862D01*
X0096435Y0028157D01*
X0093691Y0029519D01*
X0090981Y0030949D01*
X0088306Y0032444D01*
X0085669Y0034005D01*
X0083071Y0035629D01*
X0080513Y0037317D01*
X0077998Y0039066D01*
X0075526Y0040877D01*
X0073099Y0042748D01*
X0070719Y0044677D01*
X0068386Y0046664D01*
X0066103Y0048708D01*
X0063871Y0050807D01*
X0061690Y0052960D01*
X0059563Y0055166D01*
X0057491Y0057423D01*
X0055474Y0059730D01*
X0053515Y0062085D01*
X0051614Y0064488D01*
X0049772Y0066937D01*
D11*
X0059417Y0085835D02*
X0059419Y0085923D01*
X0059425Y0086011D01*
X0059435Y0086099D01*
X0059449Y0086187D01*
X0059466Y0086273D01*
X0059488Y0086359D01*
X0059513Y0086443D01*
X0059543Y0086527D01*
X0059575Y0086609D01*
X0059612Y0086689D01*
X0059652Y0086768D01*
X0059696Y0086845D01*
X0059743Y0086920D01*
X0059793Y0086992D01*
X0059847Y0087063D01*
X0059903Y0087130D01*
X0059963Y0087196D01*
X0060025Y0087258D01*
X0060091Y0087318D01*
X0060158Y0087374D01*
X0060229Y0087428D01*
X0060301Y0087478D01*
X0060376Y0087525D01*
X0060453Y0087569D01*
X0060532Y0087609D01*
X0060612Y0087646D01*
X0060694Y0087678D01*
X0060778Y0087708D01*
X0060862Y0087733D01*
X0060948Y0087755D01*
X0061034Y0087772D01*
X0061122Y0087786D01*
X0061210Y0087796D01*
X0061298Y0087802D01*
X0061386Y0087804D01*
X0061474Y0087802D01*
X0061562Y0087796D01*
X0061650Y0087786D01*
X0061738Y0087772D01*
X0061824Y0087755D01*
X0061910Y0087733D01*
X0061994Y0087708D01*
X0062078Y0087678D01*
X0062160Y0087646D01*
X0062240Y0087609D01*
X0062319Y0087569D01*
X0062396Y0087525D01*
X0062471Y0087478D01*
X0062543Y0087428D01*
X0062614Y0087374D01*
X0062681Y0087318D01*
X0062747Y0087258D01*
X0062809Y0087196D01*
X0062869Y0087130D01*
X0062925Y0087063D01*
X0062979Y0086992D01*
X0063029Y0086920D01*
X0063076Y0086845D01*
X0063120Y0086768D01*
X0063160Y0086689D01*
X0063197Y0086609D01*
X0063229Y0086527D01*
X0063259Y0086443D01*
X0063284Y0086359D01*
X0063306Y0086273D01*
X0063323Y0086187D01*
X0063337Y0086099D01*
X0063347Y0086011D01*
X0063353Y0085923D01*
X0063355Y0085835D01*
X0063353Y0085747D01*
X0063347Y0085659D01*
X0063337Y0085571D01*
X0063323Y0085483D01*
X0063306Y0085397D01*
X0063284Y0085311D01*
X0063259Y0085227D01*
X0063229Y0085143D01*
X0063197Y0085061D01*
X0063160Y0084981D01*
X0063120Y0084902D01*
X0063076Y0084825D01*
X0063029Y0084750D01*
X0062979Y0084678D01*
X0062925Y0084607D01*
X0062869Y0084540D01*
X0062809Y0084474D01*
X0062747Y0084412D01*
X0062681Y0084352D01*
X0062614Y0084296D01*
X0062543Y0084242D01*
X0062471Y0084192D01*
X0062396Y0084145D01*
X0062319Y0084101D01*
X0062240Y0084061D01*
X0062160Y0084024D01*
X0062078Y0083992D01*
X0061994Y0083962D01*
X0061910Y0083937D01*
X0061824Y0083915D01*
X0061738Y0083898D01*
X0061650Y0083884D01*
X0061562Y0083874D01*
X0061474Y0083868D01*
X0061386Y0083866D01*
X0061298Y0083868D01*
X0061210Y0083874D01*
X0061122Y0083884D01*
X0061034Y0083898D01*
X0060948Y0083915D01*
X0060862Y0083937D01*
X0060778Y0083962D01*
X0060694Y0083992D01*
X0060612Y0084024D01*
X0060532Y0084061D01*
X0060453Y0084101D01*
X0060376Y0084145D01*
X0060301Y0084192D01*
X0060229Y0084242D01*
X0060158Y0084296D01*
X0060091Y0084352D01*
X0060025Y0084412D01*
X0059963Y0084474D01*
X0059903Y0084540D01*
X0059847Y0084607D01*
X0059793Y0084678D01*
X0059743Y0084750D01*
X0059696Y0084825D01*
X0059652Y0084902D01*
X0059612Y0084981D01*
X0059575Y0085061D01*
X0059543Y0085143D01*
X0059513Y0085227D01*
X0059488Y0085311D01*
X0059466Y0085397D01*
X0059449Y0085483D01*
X0059435Y0085571D01*
X0059425Y0085659D01*
X0059419Y0085747D01*
X0059417Y0085835D01*
X0083039Y0085835D02*
X0083041Y0085923D01*
X0083047Y0086011D01*
X0083057Y0086099D01*
X0083071Y0086187D01*
X0083088Y0086273D01*
X0083110Y0086359D01*
X0083135Y0086443D01*
X0083165Y0086527D01*
X0083197Y0086609D01*
X0083234Y0086689D01*
X0083274Y0086768D01*
X0083318Y0086845D01*
X0083365Y0086920D01*
X0083415Y0086992D01*
X0083469Y0087063D01*
X0083525Y0087130D01*
X0083585Y0087196D01*
X0083647Y0087258D01*
X0083713Y0087318D01*
X0083780Y0087374D01*
X0083851Y0087428D01*
X0083923Y0087478D01*
X0083998Y0087525D01*
X0084075Y0087569D01*
X0084154Y0087609D01*
X0084234Y0087646D01*
X0084316Y0087678D01*
X0084400Y0087708D01*
X0084484Y0087733D01*
X0084570Y0087755D01*
X0084656Y0087772D01*
X0084744Y0087786D01*
X0084832Y0087796D01*
X0084920Y0087802D01*
X0085008Y0087804D01*
X0085096Y0087802D01*
X0085184Y0087796D01*
X0085272Y0087786D01*
X0085360Y0087772D01*
X0085446Y0087755D01*
X0085532Y0087733D01*
X0085616Y0087708D01*
X0085700Y0087678D01*
X0085782Y0087646D01*
X0085862Y0087609D01*
X0085941Y0087569D01*
X0086018Y0087525D01*
X0086093Y0087478D01*
X0086165Y0087428D01*
X0086236Y0087374D01*
X0086303Y0087318D01*
X0086369Y0087258D01*
X0086431Y0087196D01*
X0086491Y0087130D01*
X0086547Y0087063D01*
X0086601Y0086992D01*
X0086651Y0086920D01*
X0086698Y0086845D01*
X0086742Y0086768D01*
X0086782Y0086689D01*
X0086819Y0086609D01*
X0086851Y0086527D01*
X0086881Y0086443D01*
X0086906Y0086359D01*
X0086928Y0086273D01*
X0086945Y0086187D01*
X0086959Y0086099D01*
X0086969Y0086011D01*
X0086975Y0085923D01*
X0086977Y0085835D01*
X0086975Y0085747D01*
X0086969Y0085659D01*
X0086959Y0085571D01*
X0086945Y0085483D01*
X0086928Y0085397D01*
X0086906Y0085311D01*
X0086881Y0085227D01*
X0086851Y0085143D01*
X0086819Y0085061D01*
X0086782Y0084981D01*
X0086742Y0084902D01*
X0086698Y0084825D01*
X0086651Y0084750D01*
X0086601Y0084678D01*
X0086547Y0084607D01*
X0086491Y0084540D01*
X0086431Y0084474D01*
X0086369Y0084412D01*
X0086303Y0084352D01*
X0086236Y0084296D01*
X0086165Y0084242D01*
X0086093Y0084192D01*
X0086018Y0084145D01*
X0085941Y0084101D01*
X0085862Y0084061D01*
X0085782Y0084024D01*
X0085700Y0083992D01*
X0085616Y0083962D01*
X0085532Y0083937D01*
X0085446Y0083915D01*
X0085360Y0083898D01*
X0085272Y0083884D01*
X0085184Y0083874D01*
X0085096Y0083868D01*
X0085008Y0083866D01*
X0084920Y0083868D01*
X0084832Y0083874D01*
X0084744Y0083884D01*
X0084656Y0083898D01*
X0084570Y0083915D01*
X0084484Y0083937D01*
X0084400Y0083962D01*
X0084316Y0083992D01*
X0084234Y0084024D01*
X0084154Y0084061D01*
X0084075Y0084101D01*
X0083998Y0084145D01*
X0083923Y0084192D01*
X0083851Y0084242D01*
X0083780Y0084296D01*
X0083713Y0084352D01*
X0083647Y0084412D01*
X0083585Y0084474D01*
X0083525Y0084540D01*
X0083469Y0084607D01*
X0083415Y0084678D01*
X0083365Y0084750D01*
X0083318Y0084825D01*
X0083274Y0084902D01*
X0083234Y0084981D01*
X0083197Y0085061D01*
X0083165Y0085143D01*
X0083135Y0085227D01*
X0083110Y0085311D01*
X0083088Y0085397D01*
X0083071Y0085483D01*
X0083057Y0085571D01*
X0083047Y0085659D01*
X0083041Y0085747D01*
X0083039Y0085835D01*
X0104110Y0057000D02*
X0104112Y0057169D01*
X0104118Y0057338D01*
X0104129Y0057507D01*
X0104143Y0057675D01*
X0104162Y0057843D01*
X0104185Y0058011D01*
X0104211Y0058178D01*
X0104242Y0058344D01*
X0104277Y0058510D01*
X0104316Y0058674D01*
X0104360Y0058838D01*
X0104407Y0059000D01*
X0104458Y0059161D01*
X0104513Y0059321D01*
X0104572Y0059480D01*
X0104634Y0059637D01*
X0104701Y0059792D01*
X0104772Y0059946D01*
X0104846Y0060098D01*
X0104924Y0060248D01*
X0105005Y0060396D01*
X0105090Y0060542D01*
X0105179Y0060686D01*
X0105271Y0060828D01*
X0105367Y0060967D01*
X0105466Y0061104D01*
X0105568Y0061239D01*
X0105674Y0061371D01*
X0105783Y0061500D01*
X0105895Y0061627D01*
X0106010Y0061751D01*
X0106128Y0061872D01*
X0106249Y0061990D01*
X0106373Y0062105D01*
X0106500Y0062217D01*
X0106629Y0062326D01*
X0106761Y0062432D01*
X0106896Y0062534D01*
X0107033Y0062633D01*
X0107172Y0062729D01*
X0107314Y0062821D01*
X0107458Y0062910D01*
X0107604Y0062995D01*
X0107752Y0063076D01*
X0107902Y0063154D01*
X0108054Y0063228D01*
X0108208Y0063299D01*
X0108363Y0063366D01*
X0108520Y0063428D01*
X0108679Y0063487D01*
X0108839Y0063542D01*
X0109000Y0063593D01*
X0109162Y0063640D01*
X0109326Y0063684D01*
X0109490Y0063723D01*
X0109656Y0063758D01*
X0109822Y0063789D01*
X0109989Y0063815D01*
X0110157Y0063838D01*
X0110325Y0063857D01*
X0110493Y0063871D01*
X0110662Y0063882D01*
X0110831Y0063888D01*
X0111000Y0063890D01*
X0111169Y0063888D01*
X0111338Y0063882D01*
X0111507Y0063871D01*
X0111675Y0063857D01*
X0111843Y0063838D01*
X0112011Y0063815D01*
X0112178Y0063789D01*
X0112344Y0063758D01*
X0112510Y0063723D01*
X0112674Y0063684D01*
X0112838Y0063640D01*
X0113000Y0063593D01*
X0113161Y0063542D01*
X0113321Y0063487D01*
X0113480Y0063428D01*
X0113637Y0063366D01*
X0113792Y0063299D01*
X0113946Y0063228D01*
X0114098Y0063154D01*
X0114248Y0063076D01*
X0114396Y0062995D01*
X0114542Y0062910D01*
X0114686Y0062821D01*
X0114828Y0062729D01*
X0114967Y0062633D01*
X0115104Y0062534D01*
X0115239Y0062432D01*
X0115371Y0062326D01*
X0115500Y0062217D01*
X0115627Y0062105D01*
X0115751Y0061990D01*
X0115872Y0061872D01*
X0115990Y0061751D01*
X0116105Y0061627D01*
X0116217Y0061500D01*
X0116326Y0061371D01*
X0116432Y0061239D01*
X0116534Y0061104D01*
X0116633Y0060967D01*
X0116729Y0060828D01*
X0116821Y0060686D01*
X0116910Y0060542D01*
X0116995Y0060396D01*
X0117076Y0060248D01*
X0117154Y0060098D01*
X0117228Y0059946D01*
X0117299Y0059792D01*
X0117366Y0059637D01*
X0117428Y0059480D01*
X0117487Y0059321D01*
X0117542Y0059161D01*
X0117593Y0059000D01*
X0117640Y0058838D01*
X0117684Y0058674D01*
X0117723Y0058510D01*
X0117758Y0058344D01*
X0117789Y0058178D01*
X0117815Y0058011D01*
X0117838Y0057843D01*
X0117857Y0057675D01*
X0117871Y0057507D01*
X0117882Y0057338D01*
X0117888Y0057169D01*
X0117890Y0057000D01*
X0117888Y0056831D01*
X0117882Y0056662D01*
X0117871Y0056493D01*
X0117857Y0056325D01*
X0117838Y0056157D01*
X0117815Y0055989D01*
X0117789Y0055822D01*
X0117758Y0055656D01*
X0117723Y0055490D01*
X0117684Y0055326D01*
X0117640Y0055162D01*
X0117593Y0055000D01*
X0117542Y0054839D01*
X0117487Y0054679D01*
X0117428Y0054520D01*
X0117366Y0054363D01*
X0117299Y0054208D01*
X0117228Y0054054D01*
X0117154Y0053902D01*
X0117076Y0053752D01*
X0116995Y0053604D01*
X0116910Y0053458D01*
X0116821Y0053314D01*
X0116729Y0053172D01*
X0116633Y0053033D01*
X0116534Y0052896D01*
X0116432Y0052761D01*
X0116326Y0052629D01*
X0116217Y0052500D01*
X0116105Y0052373D01*
X0115990Y0052249D01*
X0115872Y0052128D01*
X0115751Y0052010D01*
X0115627Y0051895D01*
X0115500Y0051783D01*
X0115371Y0051674D01*
X0115239Y0051568D01*
X0115104Y0051466D01*
X0114967Y0051367D01*
X0114828Y0051271D01*
X0114686Y0051179D01*
X0114542Y0051090D01*
X0114396Y0051005D01*
X0114248Y0050924D01*
X0114098Y0050846D01*
X0113946Y0050772D01*
X0113792Y0050701D01*
X0113637Y0050634D01*
X0113480Y0050572D01*
X0113321Y0050513D01*
X0113161Y0050458D01*
X0113000Y0050407D01*
X0112838Y0050360D01*
X0112674Y0050316D01*
X0112510Y0050277D01*
X0112344Y0050242D01*
X0112178Y0050211D01*
X0112011Y0050185D01*
X0111843Y0050162D01*
X0111675Y0050143D01*
X0111507Y0050129D01*
X0111338Y0050118D01*
X0111169Y0050112D01*
X0111000Y0050110D01*
X0110831Y0050112D01*
X0110662Y0050118D01*
X0110493Y0050129D01*
X0110325Y0050143D01*
X0110157Y0050162D01*
X0109989Y0050185D01*
X0109822Y0050211D01*
X0109656Y0050242D01*
X0109490Y0050277D01*
X0109326Y0050316D01*
X0109162Y0050360D01*
X0109000Y0050407D01*
X0108839Y0050458D01*
X0108679Y0050513D01*
X0108520Y0050572D01*
X0108363Y0050634D01*
X0108208Y0050701D01*
X0108054Y0050772D01*
X0107902Y0050846D01*
X0107752Y0050924D01*
X0107604Y0051005D01*
X0107458Y0051090D01*
X0107314Y0051179D01*
X0107172Y0051271D01*
X0107033Y0051367D01*
X0106896Y0051466D01*
X0106761Y0051568D01*
X0106629Y0051674D01*
X0106500Y0051783D01*
X0106373Y0051895D01*
X0106249Y0052010D01*
X0106128Y0052128D01*
X0106010Y0052249D01*
X0105895Y0052373D01*
X0105783Y0052500D01*
X0105674Y0052629D01*
X0105568Y0052761D01*
X0105466Y0052896D01*
X0105367Y0053033D01*
X0105271Y0053172D01*
X0105179Y0053314D01*
X0105090Y0053458D01*
X0105005Y0053604D01*
X0104924Y0053752D01*
X0104846Y0053902D01*
X0104772Y0054054D01*
X0104701Y0054208D01*
X0104634Y0054363D01*
X0104572Y0054520D01*
X0104513Y0054679D01*
X0104458Y0054839D01*
X0104407Y0055000D01*
X0104360Y0055162D01*
X0104316Y0055326D01*
X0104277Y0055490D01*
X0104242Y0055656D01*
X0104211Y0055822D01*
X0104185Y0055989D01*
X0104162Y0056157D01*
X0104143Y0056325D01*
X0104129Y0056493D01*
X0104118Y0056662D01*
X0104112Y0056831D01*
X0104110Y0057000D01*
X0083039Y0196071D02*
X0083041Y0196159D01*
X0083047Y0196247D01*
X0083057Y0196335D01*
X0083071Y0196423D01*
X0083088Y0196509D01*
X0083110Y0196595D01*
X0083135Y0196679D01*
X0083165Y0196763D01*
X0083197Y0196845D01*
X0083234Y0196925D01*
X0083274Y0197004D01*
X0083318Y0197081D01*
X0083365Y0197156D01*
X0083415Y0197228D01*
X0083469Y0197299D01*
X0083525Y0197366D01*
X0083585Y0197432D01*
X0083647Y0197494D01*
X0083713Y0197554D01*
X0083780Y0197610D01*
X0083851Y0197664D01*
X0083923Y0197714D01*
X0083998Y0197761D01*
X0084075Y0197805D01*
X0084154Y0197845D01*
X0084234Y0197882D01*
X0084316Y0197914D01*
X0084400Y0197944D01*
X0084484Y0197969D01*
X0084570Y0197991D01*
X0084656Y0198008D01*
X0084744Y0198022D01*
X0084832Y0198032D01*
X0084920Y0198038D01*
X0085008Y0198040D01*
X0085096Y0198038D01*
X0085184Y0198032D01*
X0085272Y0198022D01*
X0085360Y0198008D01*
X0085446Y0197991D01*
X0085532Y0197969D01*
X0085616Y0197944D01*
X0085700Y0197914D01*
X0085782Y0197882D01*
X0085862Y0197845D01*
X0085941Y0197805D01*
X0086018Y0197761D01*
X0086093Y0197714D01*
X0086165Y0197664D01*
X0086236Y0197610D01*
X0086303Y0197554D01*
X0086369Y0197494D01*
X0086431Y0197432D01*
X0086491Y0197366D01*
X0086547Y0197299D01*
X0086601Y0197228D01*
X0086651Y0197156D01*
X0086698Y0197081D01*
X0086742Y0197004D01*
X0086782Y0196925D01*
X0086819Y0196845D01*
X0086851Y0196763D01*
X0086881Y0196679D01*
X0086906Y0196595D01*
X0086928Y0196509D01*
X0086945Y0196423D01*
X0086959Y0196335D01*
X0086969Y0196247D01*
X0086975Y0196159D01*
X0086977Y0196071D01*
X0086975Y0195983D01*
X0086969Y0195895D01*
X0086959Y0195807D01*
X0086945Y0195719D01*
X0086928Y0195633D01*
X0086906Y0195547D01*
X0086881Y0195463D01*
X0086851Y0195379D01*
X0086819Y0195297D01*
X0086782Y0195217D01*
X0086742Y0195138D01*
X0086698Y0195061D01*
X0086651Y0194986D01*
X0086601Y0194914D01*
X0086547Y0194843D01*
X0086491Y0194776D01*
X0086431Y0194710D01*
X0086369Y0194648D01*
X0086303Y0194588D01*
X0086236Y0194532D01*
X0086165Y0194478D01*
X0086093Y0194428D01*
X0086018Y0194381D01*
X0085941Y0194337D01*
X0085862Y0194297D01*
X0085782Y0194260D01*
X0085700Y0194228D01*
X0085616Y0194198D01*
X0085532Y0194173D01*
X0085446Y0194151D01*
X0085360Y0194134D01*
X0085272Y0194120D01*
X0085184Y0194110D01*
X0085096Y0194104D01*
X0085008Y0194102D01*
X0084920Y0194104D01*
X0084832Y0194110D01*
X0084744Y0194120D01*
X0084656Y0194134D01*
X0084570Y0194151D01*
X0084484Y0194173D01*
X0084400Y0194198D01*
X0084316Y0194228D01*
X0084234Y0194260D01*
X0084154Y0194297D01*
X0084075Y0194337D01*
X0083998Y0194381D01*
X0083923Y0194428D01*
X0083851Y0194478D01*
X0083780Y0194532D01*
X0083713Y0194588D01*
X0083647Y0194648D01*
X0083585Y0194710D01*
X0083525Y0194776D01*
X0083469Y0194843D01*
X0083415Y0194914D01*
X0083365Y0194986D01*
X0083318Y0195061D01*
X0083274Y0195138D01*
X0083234Y0195217D01*
X0083197Y0195297D01*
X0083165Y0195379D01*
X0083135Y0195463D01*
X0083110Y0195547D01*
X0083088Y0195633D01*
X0083071Y0195719D01*
X0083057Y0195807D01*
X0083047Y0195895D01*
X0083041Y0195983D01*
X0083039Y0196071D01*
X0059417Y0196071D02*
X0059419Y0196159D01*
X0059425Y0196247D01*
X0059435Y0196335D01*
X0059449Y0196423D01*
X0059466Y0196509D01*
X0059488Y0196595D01*
X0059513Y0196679D01*
X0059543Y0196763D01*
X0059575Y0196845D01*
X0059612Y0196925D01*
X0059652Y0197004D01*
X0059696Y0197081D01*
X0059743Y0197156D01*
X0059793Y0197228D01*
X0059847Y0197299D01*
X0059903Y0197366D01*
X0059963Y0197432D01*
X0060025Y0197494D01*
X0060091Y0197554D01*
X0060158Y0197610D01*
X0060229Y0197664D01*
X0060301Y0197714D01*
X0060376Y0197761D01*
X0060453Y0197805D01*
X0060532Y0197845D01*
X0060612Y0197882D01*
X0060694Y0197914D01*
X0060778Y0197944D01*
X0060862Y0197969D01*
X0060948Y0197991D01*
X0061034Y0198008D01*
X0061122Y0198022D01*
X0061210Y0198032D01*
X0061298Y0198038D01*
X0061386Y0198040D01*
X0061474Y0198038D01*
X0061562Y0198032D01*
X0061650Y0198022D01*
X0061738Y0198008D01*
X0061824Y0197991D01*
X0061910Y0197969D01*
X0061994Y0197944D01*
X0062078Y0197914D01*
X0062160Y0197882D01*
X0062240Y0197845D01*
X0062319Y0197805D01*
X0062396Y0197761D01*
X0062471Y0197714D01*
X0062543Y0197664D01*
X0062614Y0197610D01*
X0062681Y0197554D01*
X0062747Y0197494D01*
X0062809Y0197432D01*
X0062869Y0197366D01*
X0062925Y0197299D01*
X0062979Y0197228D01*
X0063029Y0197156D01*
X0063076Y0197081D01*
X0063120Y0197004D01*
X0063160Y0196925D01*
X0063197Y0196845D01*
X0063229Y0196763D01*
X0063259Y0196679D01*
X0063284Y0196595D01*
X0063306Y0196509D01*
X0063323Y0196423D01*
X0063337Y0196335D01*
X0063347Y0196247D01*
X0063353Y0196159D01*
X0063355Y0196071D01*
X0063353Y0195983D01*
X0063347Y0195895D01*
X0063337Y0195807D01*
X0063323Y0195719D01*
X0063306Y0195633D01*
X0063284Y0195547D01*
X0063259Y0195463D01*
X0063229Y0195379D01*
X0063197Y0195297D01*
X0063160Y0195217D01*
X0063120Y0195138D01*
X0063076Y0195061D01*
X0063029Y0194986D01*
X0062979Y0194914D01*
X0062925Y0194843D01*
X0062869Y0194776D01*
X0062809Y0194710D01*
X0062747Y0194648D01*
X0062681Y0194588D01*
X0062614Y0194532D01*
X0062543Y0194478D01*
X0062471Y0194428D01*
X0062396Y0194381D01*
X0062319Y0194337D01*
X0062240Y0194297D01*
X0062160Y0194260D01*
X0062078Y0194228D01*
X0061994Y0194198D01*
X0061910Y0194173D01*
X0061824Y0194151D01*
X0061738Y0194134D01*
X0061650Y0194120D01*
X0061562Y0194110D01*
X0061474Y0194104D01*
X0061386Y0194102D01*
X0061298Y0194104D01*
X0061210Y0194110D01*
X0061122Y0194120D01*
X0061034Y0194134D01*
X0060948Y0194151D01*
X0060862Y0194173D01*
X0060778Y0194198D01*
X0060694Y0194228D01*
X0060612Y0194260D01*
X0060532Y0194297D01*
X0060453Y0194337D01*
X0060376Y0194381D01*
X0060301Y0194428D01*
X0060229Y0194478D01*
X0060158Y0194532D01*
X0060091Y0194588D01*
X0060025Y0194648D01*
X0059963Y0194710D01*
X0059903Y0194776D01*
X0059847Y0194843D01*
X0059793Y0194914D01*
X0059743Y0194986D01*
X0059696Y0195061D01*
X0059652Y0195138D01*
X0059612Y0195217D01*
X0059575Y0195297D01*
X0059543Y0195379D01*
X0059513Y0195463D01*
X0059488Y0195547D01*
X0059466Y0195633D01*
X0059449Y0195719D01*
X0059435Y0195807D01*
X0059425Y0195895D01*
X0059419Y0195983D01*
X0059417Y0196071D01*
X0103110Y0225000D02*
X0103112Y0225169D01*
X0103118Y0225338D01*
X0103129Y0225507D01*
X0103143Y0225675D01*
X0103162Y0225843D01*
X0103185Y0226011D01*
X0103211Y0226178D01*
X0103242Y0226344D01*
X0103277Y0226510D01*
X0103316Y0226674D01*
X0103360Y0226838D01*
X0103407Y0227000D01*
X0103458Y0227161D01*
X0103513Y0227321D01*
X0103572Y0227480D01*
X0103634Y0227637D01*
X0103701Y0227792D01*
X0103772Y0227946D01*
X0103846Y0228098D01*
X0103924Y0228248D01*
X0104005Y0228396D01*
X0104090Y0228542D01*
X0104179Y0228686D01*
X0104271Y0228828D01*
X0104367Y0228967D01*
X0104466Y0229104D01*
X0104568Y0229239D01*
X0104674Y0229371D01*
X0104783Y0229500D01*
X0104895Y0229627D01*
X0105010Y0229751D01*
X0105128Y0229872D01*
X0105249Y0229990D01*
X0105373Y0230105D01*
X0105500Y0230217D01*
X0105629Y0230326D01*
X0105761Y0230432D01*
X0105896Y0230534D01*
X0106033Y0230633D01*
X0106172Y0230729D01*
X0106314Y0230821D01*
X0106458Y0230910D01*
X0106604Y0230995D01*
X0106752Y0231076D01*
X0106902Y0231154D01*
X0107054Y0231228D01*
X0107208Y0231299D01*
X0107363Y0231366D01*
X0107520Y0231428D01*
X0107679Y0231487D01*
X0107839Y0231542D01*
X0108000Y0231593D01*
X0108162Y0231640D01*
X0108326Y0231684D01*
X0108490Y0231723D01*
X0108656Y0231758D01*
X0108822Y0231789D01*
X0108989Y0231815D01*
X0109157Y0231838D01*
X0109325Y0231857D01*
X0109493Y0231871D01*
X0109662Y0231882D01*
X0109831Y0231888D01*
X0110000Y0231890D01*
X0110169Y0231888D01*
X0110338Y0231882D01*
X0110507Y0231871D01*
X0110675Y0231857D01*
X0110843Y0231838D01*
X0111011Y0231815D01*
X0111178Y0231789D01*
X0111344Y0231758D01*
X0111510Y0231723D01*
X0111674Y0231684D01*
X0111838Y0231640D01*
X0112000Y0231593D01*
X0112161Y0231542D01*
X0112321Y0231487D01*
X0112480Y0231428D01*
X0112637Y0231366D01*
X0112792Y0231299D01*
X0112946Y0231228D01*
X0113098Y0231154D01*
X0113248Y0231076D01*
X0113396Y0230995D01*
X0113542Y0230910D01*
X0113686Y0230821D01*
X0113828Y0230729D01*
X0113967Y0230633D01*
X0114104Y0230534D01*
X0114239Y0230432D01*
X0114371Y0230326D01*
X0114500Y0230217D01*
X0114627Y0230105D01*
X0114751Y0229990D01*
X0114872Y0229872D01*
X0114990Y0229751D01*
X0115105Y0229627D01*
X0115217Y0229500D01*
X0115326Y0229371D01*
X0115432Y0229239D01*
X0115534Y0229104D01*
X0115633Y0228967D01*
X0115729Y0228828D01*
X0115821Y0228686D01*
X0115910Y0228542D01*
X0115995Y0228396D01*
X0116076Y0228248D01*
X0116154Y0228098D01*
X0116228Y0227946D01*
X0116299Y0227792D01*
X0116366Y0227637D01*
X0116428Y0227480D01*
X0116487Y0227321D01*
X0116542Y0227161D01*
X0116593Y0227000D01*
X0116640Y0226838D01*
X0116684Y0226674D01*
X0116723Y0226510D01*
X0116758Y0226344D01*
X0116789Y0226178D01*
X0116815Y0226011D01*
X0116838Y0225843D01*
X0116857Y0225675D01*
X0116871Y0225507D01*
X0116882Y0225338D01*
X0116888Y0225169D01*
X0116890Y0225000D01*
X0116888Y0224831D01*
X0116882Y0224662D01*
X0116871Y0224493D01*
X0116857Y0224325D01*
X0116838Y0224157D01*
X0116815Y0223989D01*
X0116789Y0223822D01*
X0116758Y0223656D01*
X0116723Y0223490D01*
X0116684Y0223326D01*
X0116640Y0223162D01*
X0116593Y0223000D01*
X0116542Y0222839D01*
X0116487Y0222679D01*
X0116428Y0222520D01*
X0116366Y0222363D01*
X0116299Y0222208D01*
X0116228Y0222054D01*
X0116154Y0221902D01*
X0116076Y0221752D01*
X0115995Y0221604D01*
X0115910Y0221458D01*
X0115821Y0221314D01*
X0115729Y0221172D01*
X0115633Y0221033D01*
X0115534Y0220896D01*
X0115432Y0220761D01*
X0115326Y0220629D01*
X0115217Y0220500D01*
X0115105Y0220373D01*
X0114990Y0220249D01*
X0114872Y0220128D01*
X0114751Y0220010D01*
X0114627Y0219895D01*
X0114500Y0219783D01*
X0114371Y0219674D01*
X0114239Y0219568D01*
X0114104Y0219466D01*
X0113967Y0219367D01*
X0113828Y0219271D01*
X0113686Y0219179D01*
X0113542Y0219090D01*
X0113396Y0219005D01*
X0113248Y0218924D01*
X0113098Y0218846D01*
X0112946Y0218772D01*
X0112792Y0218701D01*
X0112637Y0218634D01*
X0112480Y0218572D01*
X0112321Y0218513D01*
X0112161Y0218458D01*
X0112000Y0218407D01*
X0111838Y0218360D01*
X0111674Y0218316D01*
X0111510Y0218277D01*
X0111344Y0218242D01*
X0111178Y0218211D01*
X0111011Y0218185D01*
X0110843Y0218162D01*
X0110675Y0218143D01*
X0110507Y0218129D01*
X0110338Y0218118D01*
X0110169Y0218112D01*
X0110000Y0218110D01*
X0109831Y0218112D01*
X0109662Y0218118D01*
X0109493Y0218129D01*
X0109325Y0218143D01*
X0109157Y0218162D01*
X0108989Y0218185D01*
X0108822Y0218211D01*
X0108656Y0218242D01*
X0108490Y0218277D01*
X0108326Y0218316D01*
X0108162Y0218360D01*
X0108000Y0218407D01*
X0107839Y0218458D01*
X0107679Y0218513D01*
X0107520Y0218572D01*
X0107363Y0218634D01*
X0107208Y0218701D01*
X0107054Y0218772D01*
X0106902Y0218846D01*
X0106752Y0218924D01*
X0106604Y0219005D01*
X0106458Y0219090D01*
X0106314Y0219179D01*
X0106172Y0219271D01*
X0106033Y0219367D01*
X0105896Y0219466D01*
X0105761Y0219568D01*
X0105629Y0219674D01*
X0105500Y0219783D01*
X0105373Y0219895D01*
X0105249Y0220010D01*
X0105128Y0220128D01*
X0105010Y0220249D01*
X0104895Y0220373D01*
X0104783Y0220500D01*
X0104674Y0220629D01*
X0104568Y0220761D01*
X0104466Y0220896D01*
X0104367Y0221033D01*
X0104271Y0221172D01*
X0104179Y0221314D01*
X0104090Y0221458D01*
X0104005Y0221604D01*
X0103924Y0221752D01*
X0103846Y0221902D01*
X0103772Y0222054D01*
X0103701Y0222208D01*
X0103634Y0222363D01*
X0103572Y0222520D01*
X0103513Y0222679D01*
X0103458Y0222839D01*
X0103407Y0223000D01*
X0103360Y0223162D01*
X0103316Y0223326D01*
X0103277Y0223490D01*
X0103242Y0223656D01*
X0103211Y0223822D01*
X0103185Y0223989D01*
X0103162Y0224157D01*
X0103143Y0224325D01*
X0103129Y0224493D01*
X0103118Y0224662D01*
X0103112Y0224831D01*
X0103110Y0225000D01*
D12*
X0098787Y0205913D02*
X0098787Y0186228D01*
X0049575Y0186228D01*
X0049575Y0188197D01*
X0043669Y0188197D01*
X0043669Y0203945D01*
X0049575Y0203945D01*
X0049575Y0205913D01*
X0098787Y0205913D01*
X0187055Y0198039D02*
X0187055Y0221661D01*
X0221150Y0221661D01*
X0221150Y0198039D01*
X0187055Y0198039D01*
X0098787Y0095677D02*
X0098787Y0075992D01*
X0049575Y0075992D01*
X0049575Y0077961D01*
X0043669Y0077961D01*
X0043669Y0093709D01*
X0049575Y0093709D01*
X0049575Y0095677D01*
X0098787Y0095677D01*
X0187055Y0083866D02*
X0187055Y0060244D01*
X0221150Y0060244D01*
X0221150Y0083866D01*
X0187055Y0083866D01*
M02*
